%TF.GenerationSoftware,KiCad,Pcbnew,7.0.7*%
%TF.CreationDate,2024-03-02T19:00:11-05:00*%
%TF.ProjectId,BBAMemCardPCB,4242414d-656d-4436-9172-645043422e6b,rev?*%
%TF.SameCoordinates,Original*%
%TF.FileFunction,Legend,Top*%
%TF.FilePolarity,Positive*%
%FSLAX46Y46*%
G04 Gerber Fmt 4.6, Leading zero omitted, Abs format (unit mm)*
G04 Created by KiCad (PCBNEW 7.0.7) date 2024-03-02 19:00:11*
%MOMM*%
%LPD*%
G01*
G04 APERTURE LIST*
%ADD10C,0.200000*%
%ADD11C,0.150000*%
%ADD12C,0.100000*%
%ADD13C,0.120000*%
G04 APERTURE END LIST*
D10*
X134110168Y-77488019D02*
X134776835Y-77488019D01*
X135062549Y-78535638D02*
X134110168Y-78535638D01*
X134110168Y-78535638D02*
X134110168Y-76535638D01*
X134110168Y-76535638D02*
X135062549Y-76535638D01*
X135633978Y-76535638D02*
X136776835Y-76535638D01*
X136205406Y-78535638D02*
X136205406Y-76535638D01*
X137443502Y-78535638D02*
X137443502Y-76535638D01*
X137443502Y-77488019D02*
X138586359Y-77488019D01*
X138586359Y-78535638D02*
X138586359Y-76535638D01*
X139443502Y-76726114D02*
X139538740Y-76630876D01*
X139538740Y-76630876D02*
X139729216Y-76535638D01*
X139729216Y-76535638D02*
X140205407Y-76535638D01*
X140205407Y-76535638D02*
X140395883Y-76630876D01*
X140395883Y-76630876D02*
X140491121Y-76726114D01*
X140491121Y-76726114D02*
X140586359Y-76916590D01*
X140586359Y-76916590D02*
X140586359Y-77107066D01*
X140586359Y-77107066D02*
X140491121Y-77392780D01*
X140491121Y-77392780D02*
X139348264Y-78535638D01*
X139348264Y-78535638D02*
X140586359Y-78535638D01*
X142491121Y-76630876D02*
X142300645Y-76535638D01*
X142300645Y-76535638D02*
X142014931Y-76535638D01*
X142014931Y-76535638D02*
X141729216Y-76630876D01*
X141729216Y-76630876D02*
X141538740Y-76821352D01*
X141538740Y-76821352D02*
X141443502Y-77011828D01*
X141443502Y-77011828D02*
X141348264Y-77392780D01*
X141348264Y-77392780D02*
X141348264Y-77678495D01*
X141348264Y-77678495D02*
X141443502Y-78059447D01*
X141443502Y-78059447D02*
X141538740Y-78249923D01*
X141538740Y-78249923D02*
X141729216Y-78440400D01*
X141729216Y-78440400D02*
X142014931Y-78535638D01*
X142014931Y-78535638D02*
X142205407Y-78535638D01*
X142205407Y-78535638D02*
X142491121Y-78440400D01*
X142491121Y-78440400D02*
X142586359Y-78345161D01*
X142586359Y-78345161D02*
X142586359Y-77678495D01*
X142586359Y-77678495D02*
X142205407Y-77678495D01*
X144586359Y-78345161D02*
X144491121Y-78440400D01*
X144491121Y-78440400D02*
X144205407Y-78535638D01*
X144205407Y-78535638D02*
X144014931Y-78535638D01*
X144014931Y-78535638D02*
X143729216Y-78440400D01*
X143729216Y-78440400D02*
X143538740Y-78249923D01*
X143538740Y-78249923D02*
X143443502Y-78059447D01*
X143443502Y-78059447D02*
X143348264Y-77678495D01*
X143348264Y-77678495D02*
X143348264Y-77392780D01*
X143348264Y-77392780D02*
X143443502Y-77011828D01*
X143443502Y-77011828D02*
X143538740Y-76821352D01*
X143538740Y-76821352D02*
X143729216Y-76630876D01*
X143729216Y-76630876D02*
X144014931Y-76535638D01*
X144014931Y-76535638D02*
X144205407Y-76535638D01*
X144205407Y-76535638D02*
X144491121Y-76630876D01*
X144491121Y-76630876D02*
X144586359Y-76726114D01*
D11*
X129952979Y-80168809D02*
X130286312Y-80168809D01*
X130429169Y-80692619D02*
X129952979Y-80692619D01*
X129952979Y-80692619D02*
X129952979Y-79692619D01*
X129952979Y-79692619D02*
X130429169Y-79692619D01*
X130857741Y-80692619D02*
X130857741Y-79692619D01*
X130857741Y-79692619D02*
X131429169Y-80692619D01*
X131429169Y-80692619D02*
X131429169Y-79692619D01*
X132476788Y-80597380D02*
X132429169Y-80645000D01*
X132429169Y-80645000D02*
X132286312Y-80692619D01*
X132286312Y-80692619D02*
X132191074Y-80692619D01*
X132191074Y-80692619D02*
X132048217Y-80645000D01*
X132048217Y-80645000D02*
X131952979Y-80549761D01*
X131952979Y-80549761D02*
X131905360Y-80454523D01*
X131905360Y-80454523D02*
X131857741Y-80264047D01*
X131857741Y-80264047D02*
X131857741Y-80121190D01*
X131857741Y-80121190D02*
X131905360Y-79930714D01*
X131905360Y-79930714D02*
X131952979Y-79835476D01*
X131952979Y-79835476D02*
X132048217Y-79740238D01*
X132048217Y-79740238D02*
X132191074Y-79692619D01*
X132191074Y-79692619D02*
X132286312Y-79692619D01*
X132286312Y-79692619D02*
X132429169Y-79740238D01*
X132429169Y-79740238D02*
X132476788Y-79787857D01*
X132857741Y-79787857D02*
X132905360Y-79740238D01*
X132905360Y-79740238D02*
X133000598Y-79692619D01*
X133000598Y-79692619D02*
X133238693Y-79692619D01*
X133238693Y-79692619D02*
X133333931Y-79740238D01*
X133333931Y-79740238D02*
X133381550Y-79787857D01*
X133381550Y-79787857D02*
X133429169Y-79883095D01*
X133429169Y-79883095D02*
X133429169Y-79978333D01*
X133429169Y-79978333D02*
X133381550Y-80121190D01*
X133381550Y-80121190D02*
X132810122Y-80692619D01*
X132810122Y-80692619D02*
X133429169Y-80692619D01*
X134000598Y-80121190D02*
X133905360Y-80073571D01*
X133905360Y-80073571D02*
X133857741Y-80025952D01*
X133857741Y-80025952D02*
X133810122Y-79930714D01*
X133810122Y-79930714D02*
X133810122Y-79883095D01*
X133810122Y-79883095D02*
X133857741Y-79787857D01*
X133857741Y-79787857D02*
X133905360Y-79740238D01*
X133905360Y-79740238D02*
X134000598Y-79692619D01*
X134000598Y-79692619D02*
X134191074Y-79692619D01*
X134191074Y-79692619D02*
X134286312Y-79740238D01*
X134286312Y-79740238D02*
X134333931Y-79787857D01*
X134333931Y-79787857D02*
X134381550Y-79883095D01*
X134381550Y-79883095D02*
X134381550Y-79930714D01*
X134381550Y-79930714D02*
X134333931Y-80025952D01*
X134333931Y-80025952D02*
X134286312Y-80073571D01*
X134286312Y-80073571D02*
X134191074Y-80121190D01*
X134191074Y-80121190D02*
X134000598Y-80121190D01*
X134000598Y-80121190D02*
X133905360Y-80168809D01*
X133905360Y-80168809D02*
X133857741Y-80216428D01*
X133857741Y-80216428D02*
X133810122Y-80311666D01*
X133810122Y-80311666D02*
X133810122Y-80502142D01*
X133810122Y-80502142D02*
X133857741Y-80597380D01*
X133857741Y-80597380D02*
X133905360Y-80645000D01*
X133905360Y-80645000D02*
X134000598Y-80692619D01*
X134000598Y-80692619D02*
X134191074Y-80692619D01*
X134191074Y-80692619D02*
X134286312Y-80645000D01*
X134286312Y-80645000D02*
X134333931Y-80597380D01*
X134333931Y-80597380D02*
X134381550Y-80502142D01*
X134381550Y-80502142D02*
X134381550Y-80311666D01*
X134381550Y-80311666D02*
X134333931Y-80216428D01*
X134333931Y-80216428D02*
X134286312Y-80168809D01*
X134286312Y-80168809D02*
X134191074Y-80121190D01*
X135095836Y-79692619D02*
X135095836Y-80406904D01*
X135095836Y-80406904D02*
X135048217Y-80549761D01*
X135048217Y-80549761D02*
X134952979Y-80645000D01*
X134952979Y-80645000D02*
X134810122Y-80692619D01*
X134810122Y-80692619D02*
X134714884Y-80692619D01*
X136000598Y-79692619D02*
X135810122Y-79692619D01*
X135810122Y-79692619D02*
X135714884Y-79740238D01*
X135714884Y-79740238D02*
X135667265Y-79787857D01*
X135667265Y-79787857D02*
X135572027Y-79930714D01*
X135572027Y-79930714D02*
X135524408Y-80121190D01*
X135524408Y-80121190D02*
X135524408Y-80502142D01*
X135524408Y-80502142D02*
X135572027Y-80597380D01*
X135572027Y-80597380D02*
X135619646Y-80645000D01*
X135619646Y-80645000D02*
X135714884Y-80692619D01*
X135714884Y-80692619D02*
X135905360Y-80692619D01*
X135905360Y-80692619D02*
X136000598Y-80645000D01*
X136000598Y-80645000D02*
X136048217Y-80597380D01*
X136048217Y-80597380D02*
X136095836Y-80502142D01*
X136095836Y-80502142D02*
X136095836Y-80264047D01*
X136095836Y-80264047D02*
X136048217Y-80168809D01*
X136048217Y-80168809D02*
X136000598Y-80121190D01*
X136000598Y-80121190D02*
X135905360Y-80073571D01*
X135905360Y-80073571D02*
X135714884Y-80073571D01*
X135714884Y-80073571D02*
X135619646Y-80121190D01*
X135619646Y-80121190D02*
X135572027Y-80168809D01*
X135572027Y-80168809D02*
X135524408Y-80264047D01*
X136714884Y-79692619D02*
X136810122Y-79692619D01*
X136810122Y-79692619D02*
X136905360Y-79740238D01*
X136905360Y-79740238D02*
X136952979Y-79787857D01*
X136952979Y-79787857D02*
X137000598Y-79883095D01*
X137000598Y-79883095D02*
X137048217Y-80073571D01*
X137048217Y-80073571D02*
X137048217Y-80311666D01*
X137048217Y-80311666D02*
X137000598Y-80502142D01*
X137000598Y-80502142D02*
X136952979Y-80597380D01*
X136952979Y-80597380D02*
X136905360Y-80645000D01*
X136905360Y-80645000D02*
X136810122Y-80692619D01*
X136810122Y-80692619D02*
X136714884Y-80692619D01*
X136714884Y-80692619D02*
X136619646Y-80645000D01*
X136619646Y-80645000D02*
X136572027Y-80597380D01*
X136572027Y-80597380D02*
X136524408Y-80502142D01*
X136524408Y-80502142D02*
X136476789Y-80311666D01*
X136476789Y-80311666D02*
X136476789Y-80073571D01*
X136476789Y-80073571D02*
X136524408Y-79883095D01*
X136524408Y-79883095D02*
X136572027Y-79787857D01*
X136572027Y-79787857D02*
X136619646Y-79740238D01*
X136619646Y-79740238D02*
X136714884Y-79692619D01*
X138810122Y-80597380D02*
X138762503Y-80645000D01*
X138762503Y-80645000D02*
X138619646Y-80692619D01*
X138619646Y-80692619D02*
X138524408Y-80692619D01*
X138524408Y-80692619D02*
X138381551Y-80645000D01*
X138381551Y-80645000D02*
X138286313Y-80549761D01*
X138286313Y-80549761D02*
X138238694Y-80454523D01*
X138238694Y-80454523D02*
X138191075Y-80264047D01*
X138191075Y-80264047D02*
X138191075Y-80121190D01*
X138191075Y-80121190D02*
X138238694Y-79930714D01*
X138238694Y-79930714D02*
X138286313Y-79835476D01*
X138286313Y-79835476D02*
X138381551Y-79740238D01*
X138381551Y-79740238D02*
X138524408Y-79692619D01*
X138524408Y-79692619D02*
X138619646Y-79692619D01*
X138619646Y-79692619D02*
X138762503Y-79740238D01*
X138762503Y-79740238D02*
X138810122Y-79787857D01*
X139667265Y-80692619D02*
X139667265Y-80168809D01*
X139667265Y-80168809D02*
X139619646Y-80073571D01*
X139619646Y-80073571D02*
X139524408Y-80025952D01*
X139524408Y-80025952D02*
X139333932Y-80025952D01*
X139333932Y-80025952D02*
X139238694Y-80073571D01*
X139667265Y-80645000D02*
X139572027Y-80692619D01*
X139572027Y-80692619D02*
X139333932Y-80692619D01*
X139333932Y-80692619D02*
X139238694Y-80645000D01*
X139238694Y-80645000D02*
X139191075Y-80549761D01*
X139191075Y-80549761D02*
X139191075Y-80454523D01*
X139191075Y-80454523D02*
X139238694Y-80359285D01*
X139238694Y-80359285D02*
X139333932Y-80311666D01*
X139333932Y-80311666D02*
X139572027Y-80311666D01*
X139572027Y-80311666D02*
X139667265Y-80264047D01*
X140143456Y-80692619D02*
X140143456Y-80025952D01*
X140143456Y-80216428D02*
X140191075Y-80121190D01*
X140191075Y-80121190D02*
X140238694Y-80073571D01*
X140238694Y-80073571D02*
X140333932Y-80025952D01*
X140333932Y-80025952D02*
X140429170Y-80025952D01*
X141191075Y-80692619D02*
X141191075Y-79692619D01*
X141191075Y-80645000D02*
X141095837Y-80692619D01*
X141095837Y-80692619D02*
X140905361Y-80692619D01*
X140905361Y-80692619D02*
X140810123Y-80645000D01*
X140810123Y-80645000D02*
X140762504Y-80597380D01*
X140762504Y-80597380D02*
X140714885Y-80502142D01*
X140714885Y-80502142D02*
X140714885Y-80216428D01*
X140714885Y-80216428D02*
X140762504Y-80121190D01*
X140762504Y-80121190D02*
X140810123Y-80073571D01*
X140810123Y-80073571D02*
X140905361Y-80025952D01*
X140905361Y-80025952D02*
X141095837Y-80025952D01*
X141095837Y-80025952D02*
X141191075Y-80073571D01*
X142381552Y-80645000D02*
X142524409Y-80692619D01*
X142524409Y-80692619D02*
X142762504Y-80692619D01*
X142762504Y-80692619D02*
X142857742Y-80645000D01*
X142857742Y-80645000D02*
X142905361Y-80597380D01*
X142905361Y-80597380D02*
X142952980Y-80502142D01*
X142952980Y-80502142D02*
X142952980Y-80406904D01*
X142952980Y-80406904D02*
X142905361Y-80311666D01*
X142905361Y-80311666D02*
X142857742Y-80264047D01*
X142857742Y-80264047D02*
X142762504Y-80216428D01*
X142762504Y-80216428D02*
X142572028Y-80168809D01*
X142572028Y-80168809D02*
X142476790Y-80121190D01*
X142476790Y-80121190D02*
X142429171Y-80073571D01*
X142429171Y-80073571D02*
X142381552Y-79978333D01*
X142381552Y-79978333D02*
X142381552Y-79883095D01*
X142381552Y-79883095D02*
X142429171Y-79787857D01*
X142429171Y-79787857D02*
X142476790Y-79740238D01*
X142476790Y-79740238D02*
X142572028Y-79692619D01*
X142572028Y-79692619D02*
X142810123Y-79692619D01*
X142810123Y-79692619D02*
X142952980Y-79740238D01*
X143524409Y-80692619D02*
X143429171Y-80645000D01*
X143429171Y-80645000D02*
X143381552Y-80549761D01*
X143381552Y-80549761D02*
X143381552Y-79692619D01*
X144048219Y-80692619D02*
X143952981Y-80645000D01*
X143952981Y-80645000D02*
X143905362Y-80597380D01*
X143905362Y-80597380D02*
X143857743Y-80502142D01*
X143857743Y-80502142D02*
X143857743Y-80216428D01*
X143857743Y-80216428D02*
X143905362Y-80121190D01*
X143905362Y-80121190D02*
X143952981Y-80073571D01*
X143952981Y-80073571D02*
X144048219Y-80025952D01*
X144048219Y-80025952D02*
X144191076Y-80025952D01*
X144191076Y-80025952D02*
X144286314Y-80073571D01*
X144286314Y-80073571D02*
X144333933Y-80121190D01*
X144333933Y-80121190D02*
X144381552Y-80216428D01*
X144381552Y-80216428D02*
X144381552Y-80502142D01*
X144381552Y-80502142D02*
X144333933Y-80597380D01*
X144333933Y-80597380D02*
X144286314Y-80645000D01*
X144286314Y-80645000D02*
X144191076Y-80692619D01*
X144191076Y-80692619D02*
X144048219Y-80692619D01*
X144667267Y-80025952D02*
X145048219Y-80025952D01*
X144810124Y-79692619D02*
X144810124Y-80549761D01*
X144810124Y-80549761D02*
X144857743Y-80645000D01*
X144857743Y-80645000D02*
X144952981Y-80692619D01*
X144952981Y-80692619D02*
X145048219Y-80692619D01*
X146143458Y-80692619D02*
X146143458Y-79692619D01*
X146143458Y-79692619D02*
X146524410Y-79692619D01*
X146524410Y-79692619D02*
X146619648Y-79740238D01*
X146619648Y-79740238D02*
X146667267Y-79787857D01*
X146667267Y-79787857D02*
X146714886Y-79883095D01*
X146714886Y-79883095D02*
X146714886Y-80025952D01*
X146714886Y-80025952D02*
X146667267Y-80121190D01*
X146667267Y-80121190D02*
X146619648Y-80168809D01*
X146619648Y-80168809D02*
X146524410Y-80216428D01*
X146524410Y-80216428D02*
X146143458Y-80216428D01*
X147714886Y-80597380D02*
X147667267Y-80645000D01*
X147667267Y-80645000D02*
X147524410Y-80692619D01*
X147524410Y-80692619D02*
X147429172Y-80692619D01*
X147429172Y-80692619D02*
X147286315Y-80645000D01*
X147286315Y-80645000D02*
X147191077Y-80549761D01*
X147191077Y-80549761D02*
X147143458Y-80454523D01*
X147143458Y-80454523D02*
X147095839Y-80264047D01*
X147095839Y-80264047D02*
X147095839Y-80121190D01*
X147095839Y-80121190D02*
X147143458Y-79930714D01*
X147143458Y-79930714D02*
X147191077Y-79835476D01*
X147191077Y-79835476D02*
X147286315Y-79740238D01*
X147286315Y-79740238D02*
X147429172Y-79692619D01*
X147429172Y-79692619D02*
X147524410Y-79692619D01*
X147524410Y-79692619D02*
X147667267Y-79740238D01*
X147667267Y-79740238D02*
X147714886Y-79787857D01*
X148476791Y-80168809D02*
X148619648Y-80216428D01*
X148619648Y-80216428D02*
X148667267Y-80264047D01*
X148667267Y-80264047D02*
X148714886Y-80359285D01*
X148714886Y-80359285D02*
X148714886Y-80502142D01*
X148714886Y-80502142D02*
X148667267Y-80597380D01*
X148667267Y-80597380D02*
X148619648Y-80645000D01*
X148619648Y-80645000D02*
X148524410Y-80692619D01*
X148524410Y-80692619D02*
X148143458Y-80692619D01*
X148143458Y-80692619D02*
X148143458Y-79692619D01*
X148143458Y-79692619D02*
X148476791Y-79692619D01*
X148476791Y-79692619D02*
X148572029Y-79740238D01*
X148572029Y-79740238D02*
X148619648Y-79787857D01*
X148619648Y-79787857D02*
X148667267Y-79883095D01*
X148667267Y-79883095D02*
X148667267Y-79978333D01*
X148667267Y-79978333D02*
X148619648Y-80073571D01*
X148619648Y-80073571D02*
X148572029Y-80121190D01*
X148572029Y-80121190D02*
X148476791Y-80168809D01*
X148476791Y-80168809D02*
X148143458Y-80168809D01*
D12*
X141632674Y-84059895D02*
X142166008Y-84859895D01*
X142166008Y-84059895D02*
X141632674Y-84859895D01*
X133606274Y-86447495D02*
X134139608Y-87247495D01*
X134139608Y-86447495D02*
X133606274Y-87247495D01*
X135943074Y-86447495D02*
X136476408Y-87247495D01*
X136476408Y-86447495D02*
X135943074Y-87247495D01*
X133174465Y-84859895D02*
X133174465Y-84059895D01*
X133555417Y-84859895D02*
X133555417Y-84059895D01*
X133555417Y-84059895D02*
X134012560Y-84859895D01*
X134012560Y-84859895D02*
X134012560Y-84059895D01*
X134279226Y-84059895D02*
X134736369Y-84059895D01*
X134507797Y-84859895D02*
X134507797Y-84059895D01*
X138381465Y-87247495D02*
X138381465Y-86447495D01*
X138381465Y-86447495D02*
X138571941Y-86447495D01*
X138571941Y-86447495D02*
X138686227Y-86485590D01*
X138686227Y-86485590D02*
X138762417Y-86561780D01*
X138762417Y-86561780D02*
X138800512Y-86637971D01*
X138800512Y-86637971D02*
X138838608Y-86790352D01*
X138838608Y-86790352D02*
X138838608Y-86904638D01*
X138838608Y-86904638D02*
X138800512Y-87057019D01*
X138800512Y-87057019D02*
X138762417Y-87133209D01*
X138762417Y-87133209D02*
X138686227Y-87209400D01*
X138686227Y-87209400D02*
X138571941Y-87247495D01*
X138571941Y-87247495D02*
X138381465Y-87247495D01*
X139333846Y-86447495D02*
X139486227Y-86447495D01*
X139486227Y-86447495D02*
X139562417Y-86485590D01*
X139562417Y-86485590D02*
X139638608Y-86561780D01*
X139638608Y-86561780D02*
X139676703Y-86714161D01*
X139676703Y-86714161D02*
X139676703Y-86980828D01*
X139676703Y-86980828D02*
X139638608Y-87133209D01*
X139638608Y-87133209D02*
X139562417Y-87209400D01*
X139562417Y-87209400D02*
X139486227Y-87247495D01*
X139486227Y-87247495D02*
X139333846Y-87247495D01*
X139333846Y-87247495D02*
X139257655Y-87209400D01*
X139257655Y-87209400D02*
X139181465Y-87133209D01*
X139181465Y-87133209D02*
X139143369Y-86980828D01*
X139143369Y-86980828D02*
X139143369Y-86714161D01*
X139143369Y-86714161D02*
X139181465Y-86561780D01*
X139181465Y-86561780D02*
X139257655Y-86485590D01*
X139257655Y-86485590D02*
X139333846Y-86447495D01*
X143537674Y-86447495D02*
X144032912Y-86447495D01*
X144032912Y-86447495D02*
X143766246Y-86752257D01*
X143766246Y-86752257D02*
X143880531Y-86752257D01*
X143880531Y-86752257D02*
X143956722Y-86790352D01*
X143956722Y-86790352D02*
X143994817Y-86828447D01*
X143994817Y-86828447D02*
X144032912Y-86904638D01*
X144032912Y-86904638D02*
X144032912Y-87095114D01*
X144032912Y-87095114D02*
X143994817Y-87171304D01*
X143994817Y-87171304D02*
X143956722Y-87209400D01*
X143956722Y-87209400D02*
X143880531Y-87247495D01*
X143880531Y-87247495D02*
X143651960Y-87247495D01*
X143651960Y-87247495D02*
X143575769Y-87209400D01*
X143575769Y-87209400D02*
X143537674Y-87171304D01*
X144261484Y-86447495D02*
X144528151Y-87247495D01*
X144528151Y-87247495D02*
X144794817Y-86447495D01*
X144985293Y-86447495D02*
X145480531Y-86447495D01*
X145480531Y-86447495D02*
X145213865Y-86752257D01*
X145213865Y-86752257D02*
X145328150Y-86752257D01*
X145328150Y-86752257D02*
X145404341Y-86790352D01*
X145404341Y-86790352D02*
X145442436Y-86828447D01*
X145442436Y-86828447D02*
X145480531Y-86904638D01*
X145480531Y-86904638D02*
X145480531Y-87095114D01*
X145480531Y-87095114D02*
X145442436Y-87171304D01*
X145442436Y-87171304D02*
X145404341Y-87209400D01*
X145404341Y-87209400D02*
X145328150Y-87247495D01*
X145328150Y-87247495D02*
X145099579Y-87247495D01*
X145099579Y-87247495D02*
X145023388Y-87209400D01*
X145023388Y-87209400D02*
X144985293Y-87171304D01*
X141810408Y-87171304D02*
X141772312Y-87209400D01*
X141772312Y-87209400D02*
X141658027Y-87247495D01*
X141658027Y-87247495D02*
X141581836Y-87247495D01*
X141581836Y-87247495D02*
X141467550Y-87209400D01*
X141467550Y-87209400D02*
X141391360Y-87133209D01*
X141391360Y-87133209D02*
X141353265Y-87057019D01*
X141353265Y-87057019D02*
X141315169Y-86904638D01*
X141315169Y-86904638D02*
X141315169Y-86790352D01*
X141315169Y-86790352D02*
X141353265Y-86637971D01*
X141353265Y-86637971D02*
X141391360Y-86561780D01*
X141391360Y-86561780D02*
X141467550Y-86485590D01*
X141467550Y-86485590D02*
X141581836Y-86447495D01*
X141581836Y-86447495D02*
X141658027Y-86447495D01*
X141658027Y-86447495D02*
X141772312Y-86485590D01*
X141772312Y-86485590D02*
X141810408Y-86523685D01*
X142115169Y-87209400D02*
X142229455Y-87247495D01*
X142229455Y-87247495D02*
X142419931Y-87247495D01*
X142419931Y-87247495D02*
X142496122Y-87209400D01*
X142496122Y-87209400D02*
X142534217Y-87171304D01*
X142534217Y-87171304D02*
X142572312Y-87095114D01*
X142572312Y-87095114D02*
X142572312Y-87018923D01*
X142572312Y-87018923D02*
X142534217Y-86942733D01*
X142534217Y-86942733D02*
X142496122Y-86904638D01*
X142496122Y-86904638D02*
X142419931Y-86866542D01*
X142419931Y-86866542D02*
X142267550Y-86828447D01*
X142267550Y-86828447D02*
X142191360Y-86790352D01*
X142191360Y-86790352D02*
X142153265Y-86752257D01*
X142153265Y-86752257D02*
X142115169Y-86676066D01*
X142115169Y-86676066D02*
X142115169Y-86599876D01*
X142115169Y-86599876D02*
X142153265Y-86523685D01*
X142153265Y-86523685D02*
X142191360Y-86485590D01*
X142191360Y-86485590D02*
X142267550Y-86447495D01*
X142267550Y-86447495D02*
X142458027Y-86447495D01*
X142458027Y-86447495D02*
X142572312Y-86485590D01*
X135866865Y-84859895D02*
X135866865Y-84059895D01*
X135866865Y-84059895D02*
X136057341Y-84059895D01*
X136057341Y-84059895D02*
X136171627Y-84097990D01*
X136171627Y-84097990D02*
X136247817Y-84174180D01*
X136247817Y-84174180D02*
X136285912Y-84250371D01*
X136285912Y-84250371D02*
X136324008Y-84402752D01*
X136324008Y-84402752D02*
X136324008Y-84517038D01*
X136324008Y-84517038D02*
X136285912Y-84669419D01*
X136285912Y-84669419D02*
X136247817Y-84745609D01*
X136247817Y-84745609D02*
X136171627Y-84821800D01*
X136171627Y-84821800D02*
X136057341Y-84859895D01*
X136057341Y-84859895D02*
X135866865Y-84859895D01*
X136666865Y-84859895D02*
X136666865Y-84059895D01*
X143855112Y-84097990D02*
X143778922Y-84059895D01*
X143778922Y-84059895D02*
X143664636Y-84059895D01*
X143664636Y-84059895D02*
X143550350Y-84097990D01*
X143550350Y-84097990D02*
X143474160Y-84174180D01*
X143474160Y-84174180D02*
X143436065Y-84250371D01*
X143436065Y-84250371D02*
X143397969Y-84402752D01*
X143397969Y-84402752D02*
X143397969Y-84517038D01*
X143397969Y-84517038D02*
X143436065Y-84669419D01*
X143436065Y-84669419D02*
X143474160Y-84745609D01*
X143474160Y-84745609D02*
X143550350Y-84821800D01*
X143550350Y-84821800D02*
X143664636Y-84859895D01*
X143664636Y-84859895D02*
X143740827Y-84859895D01*
X143740827Y-84859895D02*
X143855112Y-84821800D01*
X143855112Y-84821800D02*
X143893208Y-84783704D01*
X143893208Y-84783704D02*
X143893208Y-84517038D01*
X143893208Y-84517038D02*
X143740827Y-84517038D01*
X144236065Y-84859895D02*
X144236065Y-84059895D01*
X144236065Y-84059895D02*
X144693208Y-84859895D01*
X144693208Y-84859895D02*
X144693208Y-84059895D01*
X145074160Y-84859895D02*
X145074160Y-84059895D01*
X145074160Y-84059895D02*
X145264636Y-84059895D01*
X145264636Y-84059895D02*
X145378922Y-84097990D01*
X145378922Y-84097990D02*
X145455112Y-84174180D01*
X145455112Y-84174180D02*
X145493207Y-84250371D01*
X145493207Y-84250371D02*
X145531303Y-84402752D01*
X145531303Y-84402752D02*
X145531303Y-84517038D01*
X145531303Y-84517038D02*
X145493207Y-84669419D01*
X145493207Y-84669419D02*
X145455112Y-84745609D01*
X145455112Y-84745609D02*
X145378922Y-84821800D01*
X145378922Y-84821800D02*
X145264636Y-84859895D01*
X145264636Y-84859895D02*
X145074160Y-84859895D01*
X138457608Y-84783704D02*
X138419512Y-84821800D01*
X138419512Y-84821800D02*
X138305227Y-84859895D01*
X138305227Y-84859895D02*
X138229036Y-84859895D01*
X138229036Y-84859895D02*
X138114750Y-84821800D01*
X138114750Y-84821800D02*
X138038560Y-84745609D01*
X138038560Y-84745609D02*
X138000465Y-84669419D01*
X138000465Y-84669419D02*
X137962369Y-84517038D01*
X137962369Y-84517038D02*
X137962369Y-84402752D01*
X137962369Y-84402752D02*
X138000465Y-84250371D01*
X138000465Y-84250371D02*
X138038560Y-84174180D01*
X138038560Y-84174180D02*
X138114750Y-84097990D01*
X138114750Y-84097990D02*
X138229036Y-84059895D01*
X138229036Y-84059895D02*
X138305227Y-84059895D01*
X138305227Y-84059895D02*
X138419512Y-84097990D01*
X138419512Y-84097990D02*
X138457608Y-84136085D01*
X139181417Y-84859895D02*
X138800465Y-84859895D01*
X138800465Y-84859895D02*
X138800465Y-84059895D01*
X139448084Y-84859895D02*
X139448084Y-84059895D01*
X139905227Y-84859895D02*
X139562369Y-84402752D01*
X139905227Y-84059895D02*
X139448084Y-84517038D01*
D11*
X132765800Y-85661500D02*
X145719800Y-85661500D01*
X143205200Y-83286600D02*
X143205200Y-87960200D01*
X140512800Y-88036400D02*
X140512800Y-83286600D01*
X137490200Y-83286600D02*
X137490200Y-88011000D01*
X135026400Y-83286600D02*
X135026400Y-88011000D01*
X132765800Y-83286600D02*
X145719800Y-83286600D01*
X145719800Y-88036400D01*
X132765800Y-88036400D01*
X132765800Y-83286600D01*
X145145238Y-116335011D02*
X145097619Y-116430249D01*
X145097619Y-116430249D02*
X145097619Y-116573106D01*
X145097619Y-116573106D02*
X145145238Y-116715963D01*
X145145238Y-116715963D02*
X145240476Y-116811201D01*
X145240476Y-116811201D02*
X145335714Y-116858820D01*
X145335714Y-116858820D02*
X145526190Y-116906439D01*
X145526190Y-116906439D02*
X145669047Y-116906439D01*
X145669047Y-116906439D02*
X145859523Y-116858820D01*
X145859523Y-116858820D02*
X145954761Y-116811201D01*
X145954761Y-116811201D02*
X146050000Y-116715963D01*
X146050000Y-116715963D02*
X146097619Y-116573106D01*
X146097619Y-116573106D02*
X146097619Y-116477868D01*
X146097619Y-116477868D02*
X146050000Y-116335011D01*
X146050000Y-116335011D02*
X146002380Y-116287392D01*
X146002380Y-116287392D02*
X145669047Y-116287392D01*
X145669047Y-116287392D02*
X145669047Y-116477868D01*
X146097619Y-115858820D02*
X145097619Y-115858820D01*
X145097619Y-115858820D02*
X146097619Y-115287392D01*
X146097619Y-115287392D02*
X145097619Y-115287392D01*
X146097619Y-114811201D02*
X145097619Y-114811201D01*
X145097619Y-114811201D02*
X145097619Y-114573106D01*
X145097619Y-114573106D02*
X145145238Y-114430249D01*
X145145238Y-114430249D02*
X145240476Y-114335011D01*
X145240476Y-114335011D02*
X145335714Y-114287392D01*
X145335714Y-114287392D02*
X145526190Y-114239773D01*
X145526190Y-114239773D02*
X145669047Y-114239773D01*
X145669047Y-114239773D02*
X145859523Y-114287392D01*
X145859523Y-114287392D02*
X145954761Y-114335011D01*
X145954761Y-114335011D02*
X146050000Y-114430249D01*
X146050000Y-114430249D02*
X146097619Y-114573106D01*
X146097619Y-114573106D02*
X146097619Y-114811201D01*
X142227419Y-116827058D02*
X142227419Y-116208011D01*
X142227419Y-116208011D02*
X142608371Y-116541344D01*
X142608371Y-116541344D02*
X142608371Y-116398487D01*
X142608371Y-116398487D02*
X142655990Y-116303249D01*
X142655990Y-116303249D02*
X142703609Y-116255630D01*
X142703609Y-116255630D02*
X142798847Y-116208011D01*
X142798847Y-116208011D02*
X143036942Y-116208011D01*
X143036942Y-116208011D02*
X143132180Y-116255630D01*
X143132180Y-116255630D02*
X143179800Y-116303249D01*
X143179800Y-116303249D02*
X143227419Y-116398487D01*
X143227419Y-116398487D02*
X143227419Y-116684201D01*
X143227419Y-116684201D02*
X143179800Y-116779439D01*
X143179800Y-116779439D02*
X143132180Y-116827058D01*
X142227419Y-115922296D02*
X143227419Y-115588963D01*
X143227419Y-115588963D02*
X142227419Y-115255630D01*
X142227419Y-115017534D02*
X142227419Y-114398487D01*
X142227419Y-114398487D02*
X142608371Y-114731820D01*
X142608371Y-114731820D02*
X142608371Y-114588963D01*
X142608371Y-114588963D02*
X142655990Y-114493725D01*
X142655990Y-114493725D02*
X142703609Y-114446106D01*
X142703609Y-114446106D02*
X142798847Y-114398487D01*
X142798847Y-114398487D02*
X143036942Y-114398487D01*
X143036942Y-114398487D02*
X143132180Y-114446106D01*
X143132180Y-114446106D02*
X143179800Y-114493725D01*
X143179800Y-114493725D02*
X143227419Y-114588963D01*
X143227419Y-114588963D02*
X143227419Y-114874677D01*
X143227419Y-114874677D02*
X143179800Y-114969915D01*
X143179800Y-114969915D02*
X143132180Y-115017534D01*
X139306419Y-116331830D02*
X139306419Y-116808020D01*
X139306419Y-116808020D02*
X139782609Y-116855639D01*
X139782609Y-116855639D02*
X139734990Y-116808020D01*
X139734990Y-116808020D02*
X139687371Y-116712782D01*
X139687371Y-116712782D02*
X139687371Y-116474687D01*
X139687371Y-116474687D02*
X139734990Y-116379449D01*
X139734990Y-116379449D02*
X139782609Y-116331830D01*
X139782609Y-116331830D02*
X139877847Y-116284211D01*
X139877847Y-116284211D02*
X140115942Y-116284211D01*
X140115942Y-116284211D02*
X140211180Y-116331830D01*
X140211180Y-116331830D02*
X140258800Y-116379449D01*
X140258800Y-116379449D02*
X140306419Y-116474687D01*
X140306419Y-116474687D02*
X140306419Y-116712782D01*
X140306419Y-116712782D02*
X140258800Y-116808020D01*
X140258800Y-116808020D02*
X140211180Y-116855639D01*
X139306419Y-115998496D02*
X140306419Y-115665163D01*
X140306419Y-115665163D02*
X139306419Y-115331830D01*
X144700619Y-112388420D02*
X143700619Y-112388420D01*
X144700619Y-111912230D02*
X143700619Y-111912230D01*
X143700619Y-111912230D02*
X144700619Y-111340802D01*
X144700619Y-111340802D02*
X143700619Y-111340802D01*
X143700619Y-111007468D02*
X143700619Y-110436040D01*
X144700619Y-110721754D02*
X143700619Y-110721754D01*
X141855819Y-112388420D02*
X140855819Y-112388420D01*
X140855819Y-112388420D02*
X140855819Y-112150325D01*
X140855819Y-112150325D02*
X140903438Y-112007468D01*
X140903438Y-112007468D02*
X140998676Y-111912230D01*
X140998676Y-111912230D02*
X141093914Y-111864611D01*
X141093914Y-111864611D02*
X141284390Y-111816992D01*
X141284390Y-111816992D02*
X141427247Y-111816992D01*
X141427247Y-111816992D02*
X141617723Y-111864611D01*
X141617723Y-111864611D02*
X141712961Y-111912230D01*
X141712961Y-111912230D02*
X141808200Y-112007468D01*
X141808200Y-112007468D02*
X141855819Y-112150325D01*
X141855819Y-112150325D02*
X141855819Y-112388420D01*
X140855819Y-111197944D02*
X140855819Y-111007468D01*
X140855819Y-111007468D02*
X140903438Y-110912230D01*
X140903438Y-110912230D02*
X140998676Y-110816992D01*
X140998676Y-110816992D02*
X141189152Y-110769373D01*
X141189152Y-110769373D02*
X141522485Y-110769373D01*
X141522485Y-110769373D02*
X141712961Y-110816992D01*
X141712961Y-110816992D02*
X141808200Y-110912230D01*
X141808200Y-110912230D02*
X141855819Y-111007468D01*
X141855819Y-111007468D02*
X141855819Y-111197944D01*
X141855819Y-111197944D02*
X141808200Y-111293182D01*
X141808200Y-111293182D02*
X141712961Y-111388420D01*
X141712961Y-111388420D02*
X141522485Y-111436039D01*
X141522485Y-111436039D02*
X141189152Y-111436039D01*
X141189152Y-111436039D02*
X140998676Y-111388420D01*
X140998676Y-111388420D02*
X140903438Y-111293182D01*
X140903438Y-111293182D02*
X140855819Y-111197944D01*
X138858619Y-112363020D02*
X137858619Y-112363020D01*
X137858619Y-112363020D02*
X137858619Y-112124925D01*
X137858619Y-112124925D02*
X137906238Y-111982068D01*
X137906238Y-111982068D02*
X138001476Y-111886830D01*
X138001476Y-111886830D02*
X138096714Y-111839211D01*
X138096714Y-111839211D02*
X138287190Y-111791592D01*
X138287190Y-111791592D02*
X138430047Y-111791592D01*
X138430047Y-111791592D02*
X138620523Y-111839211D01*
X138620523Y-111839211D02*
X138715761Y-111886830D01*
X138715761Y-111886830D02*
X138811000Y-111982068D01*
X138811000Y-111982068D02*
X138858619Y-112124925D01*
X138858619Y-112124925D02*
X138858619Y-112363020D01*
X138858619Y-111363020D02*
X137858619Y-111363020D01*
X136436219Y-116928658D02*
X136436219Y-116309611D01*
X136436219Y-116309611D02*
X136817171Y-116642944D01*
X136817171Y-116642944D02*
X136817171Y-116500087D01*
X136817171Y-116500087D02*
X136864790Y-116404849D01*
X136864790Y-116404849D02*
X136912409Y-116357230D01*
X136912409Y-116357230D02*
X137007647Y-116309611D01*
X137007647Y-116309611D02*
X137245742Y-116309611D01*
X137245742Y-116309611D02*
X137340980Y-116357230D01*
X137340980Y-116357230D02*
X137388600Y-116404849D01*
X137388600Y-116404849D02*
X137436219Y-116500087D01*
X137436219Y-116500087D02*
X137436219Y-116785801D01*
X137436219Y-116785801D02*
X137388600Y-116881039D01*
X137388600Y-116881039D02*
X137340980Y-116928658D01*
X136436219Y-116023896D02*
X137436219Y-115690563D01*
X137436219Y-115690563D02*
X136436219Y-115357230D01*
X136436219Y-115119134D02*
X136436219Y-114500087D01*
X136436219Y-114500087D02*
X136817171Y-114833420D01*
X136817171Y-114833420D02*
X136817171Y-114690563D01*
X136817171Y-114690563D02*
X136864790Y-114595325D01*
X136864790Y-114595325D02*
X136912409Y-114547706D01*
X136912409Y-114547706D02*
X137007647Y-114500087D01*
X137007647Y-114500087D02*
X137245742Y-114500087D01*
X137245742Y-114500087D02*
X137340980Y-114547706D01*
X137340980Y-114547706D02*
X137388600Y-114595325D01*
X137388600Y-114595325D02*
X137436219Y-114690563D01*
X137436219Y-114690563D02*
X137436219Y-114976277D01*
X137436219Y-114976277D02*
X137388600Y-115071515D01*
X137388600Y-115071515D02*
X137340980Y-115119134D01*
X135867780Y-111766192D02*
X135915400Y-111813811D01*
X135915400Y-111813811D02*
X135963019Y-111956668D01*
X135963019Y-111956668D02*
X135963019Y-112051906D01*
X135963019Y-112051906D02*
X135915400Y-112194763D01*
X135915400Y-112194763D02*
X135820161Y-112290001D01*
X135820161Y-112290001D02*
X135724923Y-112337620D01*
X135724923Y-112337620D02*
X135534447Y-112385239D01*
X135534447Y-112385239D02*
X135391590Y-112385239D01*
X135391590Y-112385239D02*
X135201114Y-112337620D01*
X135201114Y-112337620D02*
X135105876Y-112290001D01*
X135105876Y-112290001D02*
X135010638Y-112194763D01*
X135010638Y-112194763D02*
X134963019Y-112051906D01*
X134963019Y-112051906D02*
X134963019Y-111956668D01*
X134963019Y-111956668D02*
X135010638Y-111813811D01*
X135010638Y-111813811D02*
X135058257Y-111766192D01*
X135915400Y-111385239D02*
X135963019Y-111242382D01*
X135963019Y-111242382D02*
X135963019Y-111004287D01*
X135963019Y-111004287D02*
X135915400Y-110909049D01*
X135915400Y-110909049D02*
X135867780Y-110861430D01*
X135867780Y-110861430D02*
X135772542Y-110813811D01*
X135772542Y-110813811D02*
X135677304Y-110813811D01*
X135677304Y-110813811D02*
X135582066Y-110861430D01*
X135582066Y-110861430D02*
X135534447Y-110909049D01*
X135534447Y-110909049D02*
X135486828Y-111004287D01*
X135486828Y-111004287D02*
X135439209Y-111194763D01*
X135439209Y-111194763D02*
X135391590Y-111290001D01*
X135391590Y-111290001D02*
X135343971Y-111337620D01*
X135343971Y-111337620D02*
X135248733Y-111385239D01*
X135248733Y-111385239D02*
X135153495Y-111385239D01*
X135153495Y-111385239D02*
X135058257Y-111337620D01*
X135058257Y-111337620D02*
X135010638Y-111290001D01*
X135010638Y-111290001D02*
X134963019Y-111194763D01*
X134963019Y-111194763D02*
X134963019Y-110956668D01*
X134963019Y-110956668D02*
X135010638Y-110813811D01*
X133562838Y-116385811D02*
X133515219Y-116481049D01*
X133515219Y-116481049D02*
X133515219Y-116623906D01*
X133515219Y-116623906D02*
X133562838Y-116766763D01*
X133562838Y-116766763D02*
X133658076Y-116862001D01*
X133658076Y-116862001D02*
X133753314Y-116909620D01*
X133753314Y-116909620D02*
X133943790Y-116957239D01*
X133943790Y-116957239D02*
X134086647Y-116957239D01*
X134086647Y-116957239D02*
X134277123Y-116909620D01*
X134277123Y-116909620D02*
X134372361Y-116862001D01*
X134372361Y-116862001D02*
X134467600Y-116766763D01*
X134467600Y-116766763D02*
X134515219Y-116623906D01*
X134515219Y-116623906D02*
X134515219Y-116528668D01*
X134515219Y-116528668D02*
X134467600Y-116385811D01*
X134467600Y-116385811D02*
X134419980Y-116338192D01*
X134419980Y-116338192D02*
X134086647Y-116338192D01*
X134086647Y-116338192D02*
X134086647Y-116528668D01*
X134515219Y-115909620D02*
X133515219Y-115909620D01*
X133515219Y-115909620D02*
X134515219Y-115338192D01*
X134515219Y-115338192D02*
X133515219Y-115338192D01*
X134515219Y-114862001D02*
X133515219Y-114862001D01*
X133515219Y-114862001D02*
X133515219Y-114623906D01*
X133515219Y-114623906D02*
X133562838Y-114481049D01*
X133562838Y-114481049D02*
X133658076Y-114385811D01*
X133658076Y-114385811D02*
X133753314Y-114338192D01*
X133753314Y-114338192D02*
X133943790Y-114290573D01*
X133943790Y-114290573D02*
X134086647Y-114290573D01*
X134086647Y-114290573D02*
X134277123Y-114338192D01*
X134277123Y-114338192D02*
X134372361Y-114385811D01*
X134372361Y-114385811D02*
X134467600Y-114481049D01*
X134467600Y-114481049D02*
X134515219Y-114623906D01*
X134515219Y-114623906D02*
X134515219Y-114862001D01*
X132895980Y-111689992D02*
X132943600Y-111737611D01*
X132943600Y-111737611D02*
X132991219Y-111880468D01*
X132991219Y-111880468D02*
X132991219Y-111975706D01*
X132991219Y-111975706D02*
X132943600Y-112118563D01*
X132943600Y-112118563D02*
X132848361Y-112213801D01*
X132848361Y-112213801D02*
X132753123Y-112261420D01*
X132753123Y-112261420D02*
X132562647Y-112309039D01*
X132562647Y-112309039D02*
X132419790Y-112309039D01*
X132419790Y-112309039D02*
X132229314Y-112261420D01*
X132229314Y-112261420D02*
X132134076Y-112213801D01*
X132134076Y-112213801D02*
X132038838Y-112118563D01*
X132038838Y-112118563D02*
X131991219Y-111975706D01*
X131991219Y-111975706D02*
X131991219Y-111880468D01*
X131991219Y-111880468D02*
X132038838Y-111737611D01*
X132038838Y-111737611D02*
X132086457Y-111689992D01*
X132991219Y-110785230D02*
X132991219Y-111261420D01*
X132991219Y-111261420D02*
X131991219Y-111261420D01*
X132991219Y-110451896D02*
X131991219Y-110451896D01*
X132991219Y-109880468D02*
X132419790Y-110309039D01*
X131991219Y-109880468D02*
X132562647Y-110451896D01*
D12*
X134372904Y-99658988D02*
X134411000Y-99697084D01*
X134411000Y-99697084D02*
X134449095Y-99811369D01*
X134449095Y-99811369D02*
X134449095Y-99887560D01*
X134449095Y-99887560D02*
X134411000Y-100001846D01*
X134411000Y-100001846D02*
X134334809Y-100078036D01*
X134334809Y-100078036D02*
X134258619Y-100116131D01*
X134258619Y-100116131D02*
X134106238Y-100154227D01*
X134106238Y-100154227D02*
X133991952Y-100154227D01*
X133991952Y-100154227D02*
X133839571Y-100116131D01*
X133839571Y-100116131D02*
X133763380Y-100078036D01*
X133763380Y-100078036D02*
X133687190Y-100001846D01*
X133687190Y-100001846D02*
X133649095Y-99887560D01*
X133649095Y-99887560D02*
X133649095Y-99811369D01*
X133649095Y-99811369D02*
X133687190Y-99697084D01*
X133687190Y-99697084D02*
X133725285Y-99658988D01*
X134449095Y-98935179D02*
X134449095Y-99316131D01*
X134449095Y-99316131D02*
X133649095Y-99316131D01*
X134449095Y-98668512D02*
X133649095Y-98668512D01*
X134449095Y-98211369D02*
X133991952Y-98554227D01*
X133649095Y-98211369D02*
X134106238Y-98668512D01*
X136225095Y-100344703D02*
X137025095Y-100154227D01*
X137025095Y-100154227D02*
X136453666Y-100001846D01*
X136453666Y-100001846D02*
X137025095Y-99849465D01*
X137025095Y-99849465D02*
X136225095Y-99658989D01*
X136225095Y-99201845D02*
X136225095Y-99049464D01*
X136225095Y-99049464D02*
X136263190Y-98973274D01*
X136263190Y-98973274D02*
X136339380Y-98897083D01*
X136339380Y-98897083D02*
X136491761Y-98858988D01*
X136491761Y-98858988D02*
X136758428Y-98858988D01*
X136758428Y-98858988D02*
X136910809Y-98897083D01*
X136910809Y-98897083D02*
X136987000Y-98973274D01*
X136987000Y-98973274D02*
X137025095Y-99049464D01*
X137025095Y-99049464D02*
X137025095Y-99201845D01*
X137025095Y-99201845D02*
X136987000Y-99278036D01*
X136987000Y-99278036D02*
X136910809Y-99354226D01*
X136910809Y-99354226D02*
X136758428Y-99392322D01*
X136758428Y-99392322D02*
X136491761Y-99392322D01*
X136491761Y-99392322D02*
X136339380Y-99354226D01*
X136339380Y-99354226D02*
X136263190Y-99278036D01*
X136263190Y-99278036D02*
X136225095Y-99201845D01*
X137025095Y-98135179D02*
X137025095Y-98516131D01*
X137025095Y-98516131D02*
X136225095Y-98516131D01*
X139563000Y-99049465D02*
X139601095Y-98935179D01*
X139601095Y-98935179D02*
X139601095Y-98744703D01*
X139601095Y-98744703D02*
X139563000Y-98668512D01*
X139563000Y-98668512D02*
X139524904Y-98630417D01*
X139524904Y-98630417D02*
X139448714Y-98592322D01*
X139448714Y-98592322D02*
X139372523Y-98592322D01*
X139372523Y-98592322D02*
X139296333Y-98630417D01*
X139296333Y-98630417D02*
X139258238Y-98668512D01*
X139258238Y-98668512D02*
X139220142Y-98744703D01*
X139220142Y-98744703D02*
X139182047Y-98897084D01*
X139182047Y-98897084D02*
X139143952Y-98973274D01*
X139143952Y-98973274D02*
X139105857Y-99011369D01*
X139105857Y-99011369D02*
X139029666Y-99049465D01*
X139029666Y-99049465D02*
X138953476Y-99049465D01*
X138953476Y-99049465D02*
X138877285Y-99011369D01*
X138877285Y-99011369D02*
X138839190Y-98973274D01*
X138839190Y-98973274D02*
X138801095Y-98897084D01*
X138801095Y-98897084D02*
X138801095Y-98706607D01*
X138801095Y-98706607D02*
X138839190Y-98592322D01*
X139601095Y-98249464D02*
X138801095Y-98249464D01*
X142100904Y-98973274D02*
X142139000Y-99011370D01*
X142139000Y-99011370D02*
X142177095Y-99125655D01*
X142177095Y-99125655D02*
X142177095Y-99201846D01*
X142177095Y-99201846D02*
X142139000Y-99316132D01*
X142139000Y-99316132D02*
X142062809Y-99392322D01*
X142062809Y-99392322D02*
X141986619Y-99430417D01*
X141986619Y-99430417D02*
X141834238Y-99468513D01*
X141834238Y-99468513D02*
X141719952Y-99468513D01*
X141719952Y-99468513D02*
X141567571Y-99430417D01*
X141567571Y-99430417D02*
X141491380Y-99392322D01*
X141491380Y-99392322D02*
X141415190Y-99316132D01*
X141415190Y-99316132D02*
X141377095Y-99201846D01*
X141377095Y-99201846D02*
X141377095Y-99125655D01*
X141377095Y-99125655D02*
X141415190Y-99011370D01*
X141415190Y-99011370D02*
X141453285Y-98973274D01*
X142139000Y-98668513D02*
X142177095Y-98554227D01*
X142177095Y-98554227D02*
X142177095Y-98363751D01*
X142177095Y-98363751D02*
X142139000Y-98287560D01*
X142139000Y-98287560D02*
X142100904Y-98249465D01*
X142100904Y-98249465D02*
X142024714Y-98211370D01*
X142024714Y-98211370D02*
X141948523Y-98211370D01*
X141948523Y-98211370D02*
X141872333Y-98249465D01*
X141872333Y-98249465D02*
X141834238Y-98287560D01*
X141834238Y-98287560D02*
X141796142Y-98363751D01*
X141796142Y-98363751D02*
X141758047Y-98516132D01*
X141758047Y-98516132D02*
X141719952Y-98592322D01*
X141719952Y-98592322D02*
X141681857Y-98630417D01*
X141681857Y-98630417D02*
X141605666Y-98668513D01*
X141605666Y-98668513D02*
X141529476Y-98668513D01*
X141529476Y-98668513D02*
X141453285Y-98630417D01*
X141453285Y-98630417D02*
X141415190Y-98592322D01*
X141415190Y-98592322D02*
X141377095Y-98516132D01*
X141377095Y-98516132D02*
X141377095Y-98325655D01*
X141377095Y-98325655D02*
X141415190Y-98211370D01*
X143953095Y-100268512D02*
X144753095Y-100001845D01*
X144753095Y-100001845D02*
X143953095Y-99735179D01*
X144676904Y-99011369D02*
X144715000Y-99049465D01*
X144715000Y-99049465D02*
X144753095Y-99163750D01*
X144753095Y-99163750D02*
X144753095Y-99239941D01*
X144753095Y-99239941D02*
X144715000Y-99354227D01*
X144715000Y-99354227D02*
X144638809Y-99430417D01*
X144638809Y-99430417D02*
X144562619Y-99468512D01*
X144562619Y-99468512D02*
X144410238Y-99506608D01*
X144410238Y-99506608D02*
X144295952Y-99506608D01*
X144295952Y-99506608D02*
X144143571Y-99468512D01*
X144143571Y-99468512D02*
X144067380Y-99430417D01*
X144067380Y-99430417D02*
X143991190Y-99354227D01*
X143991190Y-99354227D02*
X143953095Y-99239941D01*
X143953095Y-99239941D02*
X143953095Y-99163750D01*
X143953095Y-99163750D02*
X143991190Y-99049465D01*
X143991190Y-99049465D02*
X144029285Y-99011369D01*
X144676904Y-98211369D02*
X144715000Y-98249465D01*
X144715000Y-98249465D02*
X144753095Y-98363750D01*
X144753095Y-98363750D02*
X144753095Y-98439941D01*
X144753095Y-98439941D02*
X144715000Y-98554227D01*
X144715000Y-98554227D02*
X144638809Y-98630417D01*
X144638809Y-98630417D02*
X144562619Y-98668512D01*
X144562619Y-98668512D02*
X144410238Y-98706608D01*
X144410238Y-98706608D02*
X144295952Y-98706608D01*
X144295952Y-98706608D02*
X144143571Y-98668512D01*
X144143571Y-98668512D02*
X144067380Y-98630417D01*
X144067380Y-98630417D02*
X143991190Y-98554227D01*
X143991190Y-98554227D02*
X143953095Y-98439941D01*
X143953095Y-98439941D02*
X143953095Y-98363750D01*
X143953095Y-98363750D02*
X143991190Y-98249465D01*
X143991190Y-98249465D02*
X144029285Y-98211369D01*
X134449095Y-91894934D02*
X133649095Y-91894934D01*
X134449095Y-91513982D02*
X133649095Y-91513982D01*
X133649095Y-91513982D02*
X134449095Y-91056839D01*
X134449095Y-91056839D02*
X133649095Y-91056839D01*
X133649095Y-90790173D02*
X133649095Y-90333030D01*
X134449095Y-90561602D02*
X133649095Y-90561602D01*
X136987000Y-91933030D02*
X137025095Y-91818744D01*
X137025095Y-91818744D02*
X137025095Y-91628268D01*
X137025095Y-91628268D02*
X136987000Y-91552077D01*
X136987000Y-91552077D02*
X136948904Y-91513982D01*
X136948904Y-91513982D02*
X136872714Y-91475887D01*
X136872714Y-91475887D02*
X136796523Y-91475887D01*
X136796523Y-91475887D02*
X136720333Y-91513982D01*
X136720333Y-91513982D02*
X136682238Y-91552077D01*
X136682238Y-91552077D02*
X136644142Y-91628268D01*
X136644142Y-91628268D02*
X136606047Y-91780649D01*
X136606047Y-91780649D02*
X136567952Y-91856839D01*
X136567952Y-91856839D02*
X136529857Y-91894934D01*
X136529857Y-91894934D02*
X136453666Y-91933030D01*
X136453666Y-91933030D02*
X136377476Y-91933030D01*
X136377476Y-91933030D02*
X136301285Y-91894934D01*
X136301285Y-91894934D02*
X136263190Y-91856839D01*
X136263190Y-91856839D02*
X136225095Y-91780649D01*
X136225095Y-91780649D02*
X136225095Y-91590172D01*
X136225095Y-91590172D02*
X136263190Y-91475887D01*
X136225095Y-90980648D02*
X136225095Y-90828267D01*
X136225095Y-90828267D02*
X136263190Y-90752077D01*
X136263190Y-90752077D02*
X136339380Y-90675886D01*
X136339380Y-90675886D02*
X136491761Y-90637791D01*
X136491761Y-90637791D02*
X136758428Y-90637791D01*
X136758428Y-90637791D02*
X136910809Y-90675886D01*
X136910809Y-90675886D02*
X136987000Y-90752077D01*
X136987000Y-90752077D02*
X137025095Y-90828267D01*
X137025095Y-90828267D02*
X137025095Y-90980648D01*
X137025095Y-90980648D02*
X136987000Y-91056839D01*
X136987000Y-91056839D02*
X136910809Y-91133029D01*
X136910809Y-91133029D02*
X136758428Y-91171125D01*
X136758428Y-91171125D02*
X136491761Y-91171125D01*
X136491761Y-91171125D02*
X136339380Y-91133029D01*
X136339380Y-91133029D02*
X136263190Y-91056839D01*
X136263190Y-91056839D02*
X136225095Y-90980648D01*
X139563000Y-91933030D02*
X139601095Y-91818744D01*
X139601095Y-91818744D02*
X139601095Y-91628268D01*
X139601095Y-91628268D02*
X139563000Y-91552077D01*
X139563000Y-91552077D02*
X139524904Y-91513982D01*
X139524904Y-91513982D02*
X139448714Y-91475887D01*
X139448714Y-91475887D02*
X139372523Y-91475887D01*
X139372523Y-91475887D02*
X139296333Y-91513982D01*
X139296333Y-91513982D02*
X139258238Y-91552077D01*
X139258238Y-91552077D02*
X139220142Y-91628268D01*
X139220142Y-91628268D02*
X139182047Y-91780649D01*
X139182047Y-91780649D02*
X139143952Y-91856839D01*
X139143952Y-91856839D02*
X139105857Y-91894934D01*
X139105857Y-91894934D02*
X139029666Y-91933030D01*
X139029666Y-91933030D02*
X138953476Y-91933030D01*
X138953476Y-91933030D02*
X138877285Y-91894934D01*
X138877285Y-91894934D02*
X138839190Y-91856839D01*
X138839190Y-91856839D02*
X138801095Y-91780649D01*
X138801095Y-91780649D02*
X138801095Y-91590172D01*
X138801095Y-91590172D02*
X138839190Y-91475887D01*
X139524904Y-90675886D02*
X139563000Y-90713982D01*
X139563000Y-90713982D02*
X139601095Y-90828267D01*
X139601095Y-90828267D02*
X139601095Y-90904458D01*
X139601095Y-90904458D02*
X139563000Y-91018744D01*
X139563000Y-91018744D02*
X139486809Y-91094934D01*
X139486809Y-91094934D02*
X139410619Y-91133029D01*
X139410619Y-91133029D02*
X139258238Y-91171125D01*
X139258238Y-91171125D02*
X139143952Y-91171125D01*
X139143952Y-91171125D02*
X138991571Y-91133029D01*
X138991571Y-91133029D02*
X138915380Y-91094934D01*
X138915380Y-91094934D02*
X138839190Y-91018744D01*
X138839190Y-91018744D02*
X138801095Y-90904458D01*
X138801095Y-90904458D02*
X138801095Y-90828267D01*
X138801095Y-90828267D02*
X138839190Y-90713982D01*
X138839190Y-90713982D02*
X138877285Y-90675886D01*
X139601095Y-90333029D02*
X138801095Y-90333029D01*
X139601095Y-89875886D02*
X139143952Y-90218744D01*
X138801095Y-89875886D02*
X139258238Y-90333029D01*
X142177095Y-91437791D02*
X141796142Y-91704458D01*
X142177095Y-91894934D02*
X141377095Y-91894934D01*
X141377095Y-91894934D02*
X141377095Y-91590172D01*
X141377095Y-91590172D02*
X141415190Y-91513982D01*
X141415190Y-91513982D02*
X141453285Y-91475887D01*
X141453285Y-91475887D02*
X141529476Y-91437791D01*
X141529476Y-91437791D02*
X141643761Y-91437791D01*
X141643761Y-91437791D02*
X141719952Y-91475887D01*
X141719952Y-91475887D02*
X141758047Y-91513982D01*
X141758047Y-91513982D02*
X141796142Y-91590172D01*
X141796142Y-91590172D02*
X141796142Y-91894934D01*
X142139000Y-91133030D02*
X142177095Y-91018744D01*
X142177095Y-91018744D02*
X142177095Y-90828268D01*
X142177095Y-90828268D02*
X142139000Y-90752077D01*
X142139000Y-90752077D02*
X142100904Y-90713982D01*
X142100904Y-90713982D02*
X142024714Y-90675887D01*
X142024714Y-90675887D02*
X141948523Y-90675887D01*
X141948523Y-90675887D02*
X141872333Y-90713982D01*
X141872333Y-90713982D02*
X141834238Y-90752077D01*
X141834238Y-90752077D02*
X141796142Y-90828268D01*
X141796142Y-90828268D02*
X141758047Y-90980649D01*
X141758047Y-90980649D02*
X141719952Y-91056839D01*
X141719952Y-91056839D02*
X141681857Y-91094934D01*
X141681857Y-91094934D02*
X141605666Y-91133030D01*
X141605666Y-91133030D02*
X141529476Y-91133030D01*
X141529476Y-91133030D02*
X141453285Y-91094934D01*
X141453285Y-91094934D02*
X141415190Y-91056839D01*
X141415190Y-91056839D02*
X141377095Y-90980649D01*
X141377095Y-90980649D02*
X141377095Y-90790172D01*
X141377095Y-90790172D02*
X141415190Y-90675887D01*
X141377095Y-90447315D02*
X141377095Y-89990172D01*
X142177095Y-90218744D02*
X141377095Y-90218744D01*
X143991190Y-91475887D02*
X143953095Y-91552077D01*
X143953095Y-91552077D02*
X143953095Y-91666363D01*
X143953095Y-91666363D02*
X143991190Y-91780649D01*
X143991190Y-91780649D02*
X144067380Y-91856839D01*
X144067380Y-91856839D02*
X144143571Y-91894934D01*
X144143571Y-91894934D02*
X144295952Y-91933030D01*
X144295952Y-91933030D02*
X144410238Y-91933030D01*
X144410238Y-91933030D02*
X144562619Y-91894934D01*
X144562619Y-91894934D02*
X144638809Y-91856839D01*
X144638809Y-91856839D02*
X144715000Y-91780649D01*
X144715000Y-91780649D02*
X144753095Y-91666363D01*
X144753095Y-91666363D02*
X144753095Y-91590172D01*
X144753095Y-91590172D02*
X144715000Y-91475887D01*
X144715000Y-91475887D02*
X144676904Y-91437791D01*
X144676904Y-91437791D02*
X144410238Y-91437791D01*
X144410238Y-91437791D02*
X144410238Y-91590172D01*
X144753095Y-91094934D02*
X143953095Y-91094934D01*
X143953095Y-91094934D02*
X144753095Y-90637791D01*
X144753095Y-90637791D02*
X143953095Y-90637791D01*
X144753095Y-90256839D02*
X143953095Y-90256839D01*
X143953095Y-90256839D02*
X143953095Y-90066363D01*
X143953095Y-90066363D02*
X143991190Y-89952077D01*
X143991190Y-89952077D02*
X144067380Y-89875887D01*
X144067380Y-89875887D02*
X144143571Y-89837792D01*
X144143571Y-89837792D02*
X144295952Y-89799696D01*
X144295952Y-89799696D02*
X144410238Y-89799696D01*
X144410238Y-89799696D02*
X144562619Y-89837792D01*
X144562619Y-89837792D02*
X144638809Y-89875887D01*
X144638809Y-89875887D02*
X144715000Y-89952077D01*
X144715000Y-89952077D02*
X144753095Y-90066363D01*
X144753095Y-90066363D02*
X144753095Y-90256839D01*
D11*
X146082219Y-95361333D02*
X146796504Y-95361333D01*
X146796504Y-95361333D02*
X146939361Y-95408952D01*
X146939361Y-95408952D02*
X147034600Y-95504190D01*
X147034600Y-95504190D02*
X147082219Y-95647047D01*
X147082219Y-95647047D02*
X147082219Y-95742285D01*
X146177457Y-94932761D02*
X146129838Y-94885142D01*
X146129838Y-94885142D02*
X146082219Y-94789904D01*
X146082219Y-94789904D02*
X146082219Y-94551809D01*
X146082219Y-94551809D02*
X146129838Y-94456571D01*
X146129838Y-94456571D02*
X146177457Y-94408952D01*
X146177457Y-94408952D02*
X146272695Y-94361333D01*
X146272695Y-94361333D02*
X146367933Y-94361333D01*
X146367933Y-94361333D02*
X146510790Y-94408952D01*
X146510790Y-94408952D02*
X147082219Y-94980380D01*
X147082219Y-94980380D02*
X147082219Y-94361333D01*
X130539067Y-107793126D02*
X130539067Y-108700269D01*
X130539067Y-108700269D02*
X130478590Y-108881697D01*
X130478590Y-108881697D02*
X130357638Y-109002650D01*
X130357638Y-109002650D02*
X130176209Y-109063126D01*
X130176209Y-109063126D02*
X130055257Y-109063126D01*
X131809067Y-109063126D02*
X131083352Y-109063126D01*
X131446209Y-109063126D02*
X131446209Y-107793126D01*
X131446209Y-107793126D02*
X131325257Y-107974554D01*
X131325257Y-107974554D02*
X131204305Y-108095507D01*
X131204305Y-108095507D02*
X131083352Y-108155983D01*
D13*
%TO.C,J2*%
X144297400Y-92428000D02*
X145627400Y-92428000D01*
X143027400Y-92428000D02*
X132807400Y-92428000D01*
X145627400Y-95028000D02*
X145627400Y-97628000D01*
X143027400Y-92428000D02*
X143027400Y-95028000D01*
X145627400Y-92428000D02*
X145627400Y-93758000D01*
X143027400Y-95028000D02*
X145627400Y-95028000D01*
X132807400Y-92428000D02*
X132807400Y-97628000D01*
X145627400Y-97628000D02*
X132807400Y-97628000D01*
%TD*%
M02*
