%TF.GenerationSoftware,KiCad,Pcbnew,7.0.7*%
%TF.CreationDate,2024-03-02T19:00:10-05:00*%
%TF.ProjectId,BBAMemCardPCB,4242414d-656d-4436-9172-645043422e6b,rev?*%
%TF.SameCoordinates,Original*%
%TF.FileFunction,Copper,L1,Top*%
%TF.FilePolarity,Positive*%
%FSLAX46Y46*%
G04 Gerber Fmt 4.6, Leading zero omitted, Abs format (unit mm)*
G04 Created by KiCad (PCBNEW 7.0.7) date 2024-03-02 19:00:10*
%MOMM*%
%LPD*%
G01*
G04 APERTURE LIST*
%TA.AperFunction,ComponentPad*%
%ADD10R,1.700000X1.700000*%
%TD*%
%TA.AperFunction,ComponentPad*%
%ADD11O,1.700000X1.700000*%
%TD*%
%TA.AperFunction,SMDPad,CuDef*%
%ADD12R,1.187403X3.143131*%
%TD*%
%TA.AperFunction,SMDPad,CuDef*%
%ADD13R,1.187403X4.190840*%
%TD*%
%TA.AperFunction,SMDPad,CuDef*%
%ADD14R,1.187403X4.679771*%
%TD*%
%TA.AperFunction,SMDPad,CuDef*%
%ADD15R,1.187403X3.771756*%
%TD*%
%TA.AperFunction,ViaPad*%
%ADD16C,0.800000*%
%TD*%
%TA.AperFunction,Conductor*%
%ADD17C,0.250000*%
%TD*%
%TA.AperFunction,Conductor*%
%ADD18C,0.600000*%
%TD*%
G04 APERTURE END LIST*
D10*
%TO.P,J2,1,Pin_1*%
%TO.N,/GND*%
X144297400Y-93758000D03*
D11*
%TO.P,J2,2,Pin_2*%
%TO.N,/VCC*%
X144297400Y-96298000D03*
%TO.P,J2,3,Pin_3*%
%TO.N,/RST*%
X141757400Y-93758000D03*
%TO.P,J2,4,Pin_4*%
%TO.N,/CS*%
X141757400Y-96298000D03*
%TO.P,J2,5,Pin_5*%
%TO.N,/SCK*%
X139217400Y-93758000D03*
%TO.P,J2,6,Pin_6*%
%TO.N,/SI*%
X139217400Y-96298000D03*
%TO.P,J2,7,Pin_7*%
%TO.N,/SO*%
X136677400Y-93758000D03*
%TO.P,J2,8,Pin_8*%
%TO.N,/WOL*%
X136677400Y-96298000D03*
%TO.P,J2,9,Pin_9*%
%TO.N,/INT*%
X134137400Y-93758000D03*
%TO.P,J2,10,Pin_10*%
%TO.N,/CLK*%
X134137400Y-96298000D03*
%TD*%
D12*
%TO.P,J1,12,EXTOUT*%
%TO.N,Net-(J1-EXTIN)*%
X131148000Y-119229000D03*
D13*
%TO.P,J1,11,CLK*%
%TO.N,/SCK*%
X132548000Y-115429000D03*
D14*
%TO.P,J1,10,GND@10*%
%TO.N,/GND*%
X134048000Y-119979000D03*
D13*
%TO.P,J1,9,CS*%
%TO.N,/CS*%
X135498000Y-115429000D03*
%TO.P,J1,8,3V3@8*%
%TO.N,/VCC*%
X136948000Y-119779000D03*
%TO.P,J1,7,DI*%
%TO.N,/SO*%
X138348000Y-115429000D03*
%TO.P,J1,6,5V*%
%TO.N,unconnected-(J1-5V-Pad6)*%
X139848000Y-119779000D03*
%TO.P,J1,5,DO*%
%TO.N,/SI*%
X141298000Y-115429000D03*
%TO.P,J1,4,3V3@4*%
%TO.N,unconnected-(J1-3V3@4-Pad4)*%
X142748000Y-119779000D03*
%TO.P,J1,3,INT*%
%TO.N,/INT*%
X144148000Y-115429000D03*
D14*
%TO.P,J1,2,GND@2*%
%TO.N,unconnected-(J1-GND@2-Pad2)*%
X145648000Y-120029000D03*
D15*
%TO.P,J1,1,EXTIN*%
%TO.N,Net-(J1-EXTIN)*%
X147098000Y-115229000D03*
%TD*%
D16*
%TO.N,/GND*%
X152527000Y-92557600D03*
X147294600Y-74853800D03*
X140995400Y-75006200D03*
X132740400Y-75107800D03*
X125831600Y-98679000D03*
X125882400Y-92913200D03*
X125933200Y-86233000D03*
X125984000Y-79527400D03*
X152425400Y-74599800D03*
X125933200Y-74904600D03*
X152476200Y-79679800D03*
X152476200Y-86055200D03*
X152628600Y-99568000D03*
X125984000Y-105689400D03*
X135178800Y-102793800D03*
X139903200Y-107010200D03*
X142722600Y-107111800D03*
X152628600Y-106172000D03*
%TO.N,Net-(J1-EXTIN)*%
X147091400Y-112293400D03*
X131089400Y-112344200D03*
%TO.N,/GND*%
X134035800Y-109372400D03*
%TO.N,/INT*%
X144094200Y-109702600D03*
%TO.N,/SO*%
X138353800Y-109753400D03*
X138099800Y-101422200D03*
%TO.N,/SI*%
X141298000Y-109728000D03*
X139192000Y-100050600D03*
%TD*%
D17*
%TO.N,/SO*%
X138348000Y-109759200D02*
X138348000Y-115429000D01*
X138353800Y-109753400D02*
X138348000Y-109759200D01*
%TO.N,/SI*%
X141298000Y-109728000D02*
X141298000Y-115429000D01*
%TO.N,/INT*%
X144148000Y-109756400D02*
X144148000Y-115429000D01*
X144094200Y-109702600D02*
X144148000Y-109756400D01*
%TO.N,/SI*%
X139217400Y-100025200D02*
X139217400Y-96298000D01*
X139192000Y-100050600D02*
X139217400Y-100025200D01*
%TO.N,/SO*%
X137947400Y-101269800D02*
X137947400Y-95028000D01*
X138099800Y-101422200D02*
X137947400Y-101269800D01*
X137947400Y-95028000D02*
X136677400Y-93758000D01*
%TO.N,/SCK*%
X132181600Y-115062600D02*
X132548000Y-115429000D01*
X132181600Y-93294200D02*
X132181600Y-115062600D01*
X133197600Y-92278200D02*
X132181600Y-93294200D01*
X138709400Y-92278200D02*
X133197600Y-92278200D01*
X139217400Y-92786200D02*
X138709400Y-92278200D01*
X139217400Y-93758000D02*
X139217400Y-92786200D01*
%TO.N,/CS*%
X135498000Y-106157600D02*
X135498000Y-115429000D01*
X141757400Y-96298000D02*
X141757400Y-99898200D01*
X141757400Y-99898200D02*
X135498000Y-106157600D01*
D18*
%TO.N,/VCC*%
X136948000Y-107298400D02*
X136948000Y-119779000D01*
X144297400Y-99949000D02*
X136948000Y-107298400D01*
X144297400Y-96298000D02*
X144297400Y-99949000D01*
D17*
%TO.N,Net-(J1-EXTIN)*%
X147091400Y-112293400D02*
X147091400Y-115222400D01*
X147091400Y-115222400D02*
X147098000Y-115229000D01*
X131148000Y-112402800D02*
X131089400Y-112344200D01*
X131148000Y-119229000D02*
X131148000Y-112402800D01*
%TO.N,/GND*%
X134048000Y-109384600D02*
X134035800Y-109372400D01*
D18*
X134048000Y-119979000D02*
X134048000Y-109384600D01*
%TD*%
%TA.AperFunction,Conductor*%
%TO.N,/GND*%
G36*
X154133239Y-73339825D02*
G01*
X154178994Y-73392629D01*
X154190200Y-73444140D01*
X154190200Y-107695960D01*
X154170515Y-107762999D01*
X154117711Y-107808754D01*
X154066200Y-107819960D01*
X148416640Y-107819960D01*
X148416434Y-107819919D01*
X148391880Y-107819919D01*
X148391781Y-107819960D01*
X148391497Y-107820076D01*
X148391495Y-107820078D01*
X148391339Y-107820459D01*
X148391356Y-107845076D01*
X148391351Y-107845076D01*
X148391380Y-107845219D01*
X148391380Y-122735300D01*
X148371695Y-122802339D01*
X148318891Y-122848094D01*
X148267380Y-122859300D01*
X130116620Y-122859300D01*
X130049581Y-122839615D01*
X130003826Y-122786811D01*
X129992620Y-122735300D01*
X129992620Y-120820318D01*
X130353798Y-120820318D01*
X130365429Y-120878795D01*
X130365430Y-120878796D01*
X130409745Y-120945118D01*
X130476067Y-120989433D01*
X130476068Y-120989434D01*
X130534545Y-121001065D01*
X130534548Y-121001066D01*
X130534550Y-121001066D01*
X131761452Y-121001066D01*
X131761453Y-121001065D01*
X131776270Y-120998118D01*
X131819931Y-120989434D01*
X131819931Y-120989433D01*
X131819933Y-120989433D01*
X131886254Y-120945118D01*
X131930569Y-120878797D01*
X131930569Y-120878795D01*
X131930570Y-120878795D01*
X131942201Y-120820318D01*
X131942202Y-120820316D01*
X131942202Y-117848920D01*
X131961887Y-117781881D01*
X132014691Y-117736126D01*
X132066202Y-117724920D01*
X133161452Y-117724920D01*
X133161453Y-117724919D01*
X133176270Y-117721972D01*
X133219931Y-117713288D01*
X133219931Y-117713287D01*
X133219933Y-117713287D01*
X133286254Y-117668972D01*
X133330569Y-117602651D01*
X133330569Y-117602649D01*
X133330570Y-117602649D01*
X133339254Y-117558988D01*
X133342201Y-117544172D01*
X134703798Y-117544172D01*
X134715429Y-117602649D01*
X134715430Y-117602650D01*
X134759745Y-117668972D01*
X134826067Y-117713287D01*
X134826068Y-117713288D01*
X134884545Y-117724919D01*
X134884548Y-117724920D01*
X136029798Y-117724920D01*
X136096837Y-117744605D01*
X136142592Y-117797409D01*
X136153798Y-117848920D01*
X136153798Y-121894172D01*
X136165429Y-121952649D01*
X136165430Y-121952650D01*
X136209745Y-122018972D01*
X136276067Y-122063287D01*
X136276068Y-122063288D01*
X136334545Y-122074919D01*
X136334548Y-122074920D01*
X136334550Y-122074920D01*
X137561452Y-122074920D01*
X137561453Y-122074919D01*
X137576270Y-122071972D01*
X137619931Y-122063288D01*
X137619931Y-122063287D01*
X137619933Y-122063287D01*
X137686254Y-122018972D01*
X137730569Y-121952651D01*
X137730569Y-121952649D01*
X137730570Y-121952649D01*
X137742201Y-121894172D01*
X137742202Y-121894170D01*
X137742202Y-117848920D01*
X137761887Y-117781881D01*
X137814691Y-117736126D01*
X137866202Y-117724920D01*
X138929798Y-117724920D01*
X138996837Y-117744605D01*
X139042592Y-117797409D01*
X139053798Y-117848920D01*
X139053798Y-121894172D01*
X139065429Y-121952649D01*
X139065430Y-121952650D01*
X139109745Y-122018972D01*
X139176067Y-122063287D01*
X139176068Y-122063288D01*
X139234545Y-122074919D01*
X139234548Y-122074920D01*
X139234550Y-122074920D01*
X140461452Y-122074920D01*
X140461453Y-122074919D01*
X140476270Y-122071972D01*
X140519931Y-122063288D01*
X140519931Y-122063287D01*
X140519933Y-122063287D01*
X140586254Y-122018972D01*
X140630569Y-121952651D01*
X140630569Y-121952649D01*
X140630570Y-121952649D01*
X140642201Y-121894172D01*
X140642202Y-121894170D01*
X140642202Y-117848920D01*
X140661887Y-117781881D01*
X140714691Y-117736126D01*
X140766202Y-117724920D01*
X141829798Y-117724920D01*
X141896837Y-117744605D01*
X141942592Y-117797409D01*
X141953798Y-117848920D01*
X141953798Y-121894172D01*
X141965429Y-121952649D01*
X141965430Y-121952650D01*
X142009745Y-122018972D01*
X142076067Y-122063287D01*
X142076068Y-122063288D01*
X142134545Y-122074919D01*
X142134548Y-122074920D01*
X142134550Y-122074920D01*
X143361452Y-122074920D01*
X143361453Y-122074919D01*
X143376270Y-122071972D01*
X143419931Y-122063288D01*
X143419931Y-122063287D01*
X143419933Y-122063287D01*
X143486254Y-122018972D01*
X143530569Y-121952651D01*
X143530569Y-121952649D01*
X143530570Y-121952649D01*
X143542201Y-121894172D01*
X143542202Y-121894170D01*
X143542202Y-117848920D01*
X143561887Y-117781881D01*
X143614691Y-117736126D01*
X143666202Y-117724920D01*
X144729798Y-117724920D01*
X144796837Y-117744605D01*
X144842592Y-117797409D01*
X144853798Y-117848920D01*
X144853798Y-122388638D01*
X144865429Y-122447115D01*
X144865430Y-122447116D01*
X144909745Y-122513438D01*
X144976067Y-122557753D01*
X144976068Y-122557754D01*
X145034545Y-122569385D01*
X145034548Y-122569386D01*
X145034550Y-122569386D01*
X146261452Y-122569386D01*
X146261453Y-122569385D01*
X146276270Y-122566438D01*
X146319931Y-122557754D01*
X146319931Y-122557753D01*
X146319933Y-122557753D01*
X146386254Y-122513438D01*
X146430569Y-122447117D01*
X146430569Y-122447115D01*
X146430570Y-122447115D01*
X146442201Y-122388638D01*
X146442202Y-122388636D01*
X146442202Y-117669363D01*
X146442201Y-117669361D01*
X146430570Y-117610884D01*
X146430569Y-117610883D01*
X146386254Y-117544561D01*
X146374529Y-117536727D01*
X146335417Y-117489925D01*
X146335382Y-117489947D01*
X146278386Y-117491982D01*
X146261454Y-117488614D01*
X146261450Y-117488614D01*
X145066202Y-117488614D01*
X144999163Y-117468929D01*
X144953408Y-117416125D01*
X144942202Y-117364614D01*
X144942202Y-117134630D01*
X146303798Y-117134630D01*
X146315429Y-117193107D01*
X146315430Y-117193108D01*
X146359744Y-117259429D01*
X146371469Y-117267263D01*
X146410582Y-117314066D01*
X146410619Y-117314044D01*
X146467613Y-117312009D01*
X146484550Y-117315378D01*
X146484551Y-117315378D01*
X147711452Y-117315378D01*
X147711453Y-117315377D01*
X147728387Y-117312009D01*
X147769931Y-117303746D01*
X147769931Y-117303745D01*
X147769933Y-117303745D01*
X147836254Y-117259430D01*
X147880569Y-117193109D01*
X147880569Y-117193107D01*
X147880570Y-117193107D01*
X147892201Y-117134630D01*
X147892202Y-117134628D01*
X147892202Y-113323371D01*
X147892201Y-113323369D01*
X147880570Y-113264892D01*
X147880569Y-113264891D01*
X147836254Y-113198569D01*
X147769932Y-113154254D01*
X147769931Y-113154253D01*
X147711454Y-113142622D01*
X147711450Y-113142622D01*
X147540900Y-113142622D01*
X147473861Y-113122937D01*
X147428106Y-113070133D01*
X147416900Y-113018622D01*
X147416900Y-112861698D01*
X147436585Y-112794659D01*
X147465410Y-112763325D01*
X147519682Y-112721682D01*
X147615936Y-112596241D01*
X147676444Y-112450162D01*
X147697082Y-112293400D01*
X147676444Y-112136638D01*
X147615936Y-111990559D01*
X147519682Y-111865118D01*
X147394241Y-111768864D01*
X147370801Y-111759155D01*
X147248162Y-111708356D01*
X147248160Y-111708355D01*
X147091401Y-111687718D01*
X147091399Y-111687718D01*
X146934639Y-111708355D01*
X146934637Y-111708356D01*
X146788560Y-111768863D01*
X146663118Y-111865118D01*
X146566863Y-111990560D01*
X146506356Y-112136637D01*
X146506355Y-112136639D01*
X146485718Y-112293398D01*
X146485718Y-112293401D01*
X146506355Y-112450160D01*
X146506356Y-112450162D01*
X146561769Y-112583942D01*
X146566864Y-112596241D01*
X146663118Y-112721682D01*
X146717387Y-112763324D01*
X146758589Y-112819749D01*
X146765900Y-112861698D01*
X146765900Y-113018622D01*
X146746215Y-113085661D01*
X146693411Y-113131416D01*
X146641900Y-113142622D01*
X146484545Y-113142622D01*
X146426068Y-113154253D01*
X146426067Y-113154254D01*
X146359745Y-113198569D01*
X146315430Y-113264891D01*
X146315429Y-113264892D01*
X146303798Y-113323369D01*
X146303798Y-117134630D01*
X144942202Y-117134630D01*
X144942202Y-113313829D01*
X144942201Y-113313827D01*
X144930570Y-113255350D01*
X144930569Y-113255349D01*
X144886254Y-113189027D01*
X144819932Y-113144712D01*
X144819931Y-113144711D01*
X144761454Y-113133080D01*
X144761450Y-113133080D01*
X144597500Y-113133080D01*
X144530461Y-113113395D01*
X144484706Y-113060591D01*
X144473500Y-113009080D01*
X144473500Y-110229616D01*
X144493185Y-110162577D01*
X144516902Y-110136796D01*
X144516735Y-110136629D01*
X144520767Y-110132596D01*
X144522015Y-110131239D01*
X144522482Y-110130882D01*
X144618736Y-110005441D01*
X144679244Y-109859362D01*
X144699882Y-109702600D01*
X144679244Y-109545838D01*
X144618736Y-109399759D01*
X144522482Y-109274318D01*
X144397041Y-109178064D01*
X144373601Y-109168355D01*
X144250962Y-109117556D01*
X144250960Y-109117555D01*
X144094201Y-109096918D01*
X144094199Y-109096918D01*
X143937439Y-109117555D01*
X143937437Y-109117556D01*
X143791360Y-109178063D01*
X143665918Y-109274318D01*
X143569663Y-109399760D01*
X143509156Y-109545837D01*
X143509155Y-109545839D01*
X143488518Y-109702598D01*
X143488518Y-109702601D01*
X143509155Y-109859360D01*
X143509156Y-109859362D01*
X143569664Y-110005441D01*
X143665916Y-110130879D01*
X143665919Y-110130883D01*
X143773986Y-110213805D01*
X143815189Y-110270233D01*
X143822500Y-110312181D01*
X143822500Y-113009080D01*
X143802815Y-113076119D01*
X143750011Y-113121874D01*
X143698500Y-113133080D01*
X143534545Y-113133080D01*
X143476068Y-113144711D01*
X143476067Y-113144712D01*
X143409745Y-113189027D01*
X143365430Y-113255349D01*
X143365429Y-113255350D01*
X143353798Y-113313827D01*
X143353798Y-117359080D01*
X143334113Y-117426119D01*
X143281309Y-117471874D01*
X143229798Y-117483080D01*
X142216202Y-117483080D01*
X142149163Y-117463395D01*
X142103408Y-117410591D01*
X142092202Y-117359080D01*
X142092202Y-113313829D01*
X142092201Y-113313827D01*
X142080570Y-113255350D01*
X142080569Y-113255349D01*
X142036254Y-113189027D01*
X141969932Y-113144712D01*
X141969931Y-113144711D01*
X141911454Y-113133080D01*
X141911450Y-113133080D01*
X141747500Y-113133080D01*
X141680461Y-113113395D01*
X141634706Y-113060591D01*
X141623500Y-113009080D01*
X141623500Y-110296298D01*
X141643185Y-110229259D01*
X141672010Y-110197925D01*
X141726282Y-110156282D01*
X141822536Y-110030841D01*
X141883044Y-109884762D01*
X141903682Y-109728000D01*
X141883044Y-109571238D01*
X141822536Y-109425159D01*
X141726282Y-109299718D01*
X141600841Y-109203464D01*
X141454762Y-109142956D01*
X141454760Y-109142955D01*
X141298001Y-109122318D01*
X141297999Y-109122318D01*
X141141239Y-109142955D01*
X141141237Y-109142956D01*
X140995160Y-109203463D01*
X140869718Y-109299718D01*
X140773463Y-109425160D01*
X140712956Y-109571237D01*
X140712955Y-109571239D01*
X140692318Y-109727998D01*
X140692318Y-109728001D01*
X140712955Y-109884760D01*
X140712956Y-109884762D01*
X140773464Y-110030841D01*
X140869718Y-110156282D01*
X140923987Y-110197924D01*
X140965189Y-110254349D01*
X140972500Y-110296298D01*
X140972500Y-113009080D01*
X140952815Y-113076119D01*
X140900011Y-113121874D01*
X140848500Y-113133080D01*
X140684545Y-113133080D01*
X140626068Y-113144711D01*
X140626067Y-113144712D01*
X140559745Y-113189027D01*
X140515430Y-113255349D01*
X140515429Y-113255350D01*
X140503798Y-113313827D01*
X140503798Y-117359080D01*
X140484113Y-117426119D01*
X140431309Y-117471874D01*
X140379798Y-117483080D01*
X139266202Y-117483080D01*
X139199163Y-117463395D01*
X139153408Y-117410591D01*
X139142202Y-117359080D01*
X139142202Y-113313829D01*
X139142201Y-113313827D01*
X139130570Y-113255350D01*
X139130569Y-113255349D01*
X139086254Y-113189027D01*
X139019932Y-113144712D01*
X139019931Y-113144711D01*
X138961454Y-113133080D01*
X138961450Y-113133080D01*
X138797500Y-113133080D01*
X138730461Y-113113395D01*
X138684706Y-113060591D01*
X138673500Y-113009080D01*
X138673500Y-110326149D01*
X138693185Y-110259110D01*
X138722014Y-110227773D01*
X138782082Y-110181682D01*
X138878336Y-110056241D01*
X138938844Y-109910162D01*
X138959482Y-109753400D01*
X138938844Y-109596638D01*
X138878336Y-109450559D01*
X138782082Y-109325118D01*
X138656641Y-109228864D01*
X138510562Y-109168356D01*
X138510560Y-109168355D01*
X138353801Y-109147718D01*
X138353799Y-109147718D01*
X138197039Y-109168355D01*
X138197037Y-109168356D01*
X138050960Y-109228863D01*
X137925518Y-109325118D01*
X137829263Y-109450560D01*
X137768756Y-109596637D01*
X137768755Y-109596639D01*
X137748118Y-109753398D01*
X137748118Y-109753401D01*
X137768755Y-109910160D01*
X137768756Y-109910162D01*
X137829264Y-110056241D01*
X137925518Y-110181682D01*
X137973985Y-110218872D01*
X138015188Y-110275298D01*
X138022500Y-110317248D01*
X138022500Y-113009080D01*
X138002815Y-113076119D01*
X137950011Y-113121874D01*
X137898500Y-113133080D01*
X137734545Y-113133080D01*
X137676068Y-113144711D01*
X137676068Y-113144712D01*
X137641390Y-113167883D01*
X137574712Y-113188760D01*
X137507332Y-113170275D01*
X137460643Y-113118296D01*
X137448500Y-113064780D01*
X137448500Y-107557075D01*
X137468185Y-107490036D01*
X137484814Y-107469399D01*
X144603831Y-100350381D01*
X144624468Y-100333751D01*
X144628528Y-100331143D01*
X144662509Y-100291925D01*
X144665492Y-100288720D01*
X144676621Y-100277593D01*
X144686037Y-100265014D01*
X144688817Y-100261564D01*
X144722777Y-100222373D01*
X144724775Y-100217995D01*
X144738307Y-100195189D01*
X144741196Y-100191331D01*
X144759322Y-100142728D01*
X144761014Y-100138645D01*
X144761122Y-100138408D01*
X144782565Y-100091457D01*
X144783250Y-100086685D01*
X144789809Y-100060992D01*
X144791491Y-100056483D01*
X144795191Y-100004740D01*
X144795665Y-100000340D01*
X144797900Y-99984799D01*
X144797900Y-99969094D01*
X144798058Y-99964669D01*
X144801759Y-99912927D01*
X144800732Y-99908206D01*
X144797900Y-99881858D01*
X144797900Y-97295948D01*
X144817585Y-97228909D01*
X144863447Y-97186590D01*
X144883850Y-97175685D01*
X145043810Y-97044410D01*
X145175085Y-96884450D01*
X145272632Y-96701954D01*
X145332700Y-96503934D01*
X145352983Y-96298000D01*
X145332700Y-96092066D01*
X145272632Y-95894046D01*
X145175085Y-95711550D01*
X145063143Y-95575147D01*
X145043810Y-95551589D01*
X144883852Y-95420317D01*
X144883853Y-95420317D01*
X144883850Y-95420315D01*
X144701354Y-95322768D01*
X144503334Y-95262700D01*
X144503332Y-95262699D01*
X144503334Y-95262699D01*
X144315863Y-95244235D01*
X144297400Y-95242417D01*
X144297399Y-95242417D01*
X144091467Y-95262699D01*
X143893443Y-95322769D01*
X143783298Y-95381643D01*
X143710950Y-95420315D01*
X143710948Y-95420316D01*
X143710947Y-95420317D01*
X143550989Y-95551589D01*
X143419717Y-95711547D01*
X143322169Y-95894043D01*
X143262099Y-96092067D01*
X143241817Y-96298000D01*
X143262099Y-96503932D01*
X143262100Y-96503934D01*
X143322168Y-96701954D01*
X143419715Y-96884450D01*
X143419717Y-96884452D01*
X143550989Y-97044410D01*
X143594108Y-97079796D01*
X143710950Y-97175685D01*
X143731352Y-97186590D01*
X143781196Y-97235549D01*
X143796900Y-97295948D01*
X143796900Y-99690323D01*
X143777215Y-99757362D01*
X143760581Y-99778004D01*
X136641568Y-106897016D01*
X136620938Y-106913643D01*
X136616876Y-106916254D01*
X136616867Y-106916261D01*
X136582905Y-106955455D01*
X136579892Y-106958691D01*
X136568781Y-106969802D01*
X136559354Y-106982396D01*
X136556587Y-106985828D01*
X136543375Y-107001076D01*
X136522623Y-107025026D01*
X136522617Y-107025036D01*
X136520615Y-107029420D01*
X136507100Y-107052199D01*
X136504206Y-107056064D01*
X136504200Y-107056075D01*
X136486078Y-107104664D01*
X136484385Y-107108753D01*
X136462835Y-107155943D01*
X136462833Y-107155950D01*
X136462146Y-107160727D01*
X136455598Y-107186386D01*
X136453910Y-107190913D01*
X136453909Y-107190917D01*
X136450207Y-107242660D01*
X136449734Y-107247056D01*
X136447500Y-107262599D01*
X136447500Y-107278304D01*
X136447342Y-107282729D01*
X136443641Y-107334469D01*
X136443641Y-107334473D01*
X136444666Y-107339185D01*
X136447500Y-107365543D01*
X136447500Y-113100910D01*
X136427815Y-113167949D01*
X136375011Y-113213704D01*
X136305853Y-113223648D01*
X136242297Y-113194623D01*
X136236369Y-113189104D01*
X136169932Y-113144712D01*
X136169931Y-113144711D01*
X136111454Y-113133080D01*
X136111450Y-113133080D01*
X135947500Y-113133080D01*
X135880461Y-113113395D01*
X135834706Y-113060591D01*
X135823500Y-113009080D01*
X135823500Y-106343788D01*
X135843185Y-106276749D01*
X135859819Y-106256107D01*
X136200456Y-105915470D01*
X141975610Y-100140315D01*
X141979572Y-100136684D01*
X142010594Y-100110655D01*
X142030844Y-100075579D01*
X142033728Y-100071052D01*
X142056954Y-100037884D01*
X142056954Y-100037881D01*
X142059219Y-100033024D01*
X142066147Y-100016299D01*
X142067987Y-100011246D01*
X142067988Y-100011245D01*
X142075021Y-99971350D01*
X142076177Y-99966137D01*
X142086663Y-99927007D01*
X142083135Y-99886689D01*
X142082900Y-99881286D01*
X142082900Y-97388583D01*
X142102585Y-97321544D01*
X142155389Y-97275789D01*
X142159449Y-97274021D01*
X142161345Y-97273234D01*
X142161354Y-97273232D01*
X142343850Y-97175685D01*
X142503810Y-97044410D01*
X142635085Y-96884450D01*
X142732632Y-96701954D01*
X142792700Y-96503934D01*
X142812983Y-96298000D01*
X142792700Y-96092066D01*
X142732632Y-95894046D01*
X142635085Y-95711550D01*
X142523143Y-95575147D01*
X142503810Y-95551589D01*
X142343852Y-95420317D01*
X142343853Y-95420317D01*
X142343850Y-95420315D01*
X142161354Y-95322768D01*
X141963334Y-95262700D01*
X141963332Y-95262699D01*
X141963334Y-95262699D01*
X141775863Y-95244235D01*
X141757400Y-95242417D01*
X141757399Y-95242417D01*
X141551467Y-95262699D01*
X141353443Y-95322769D01*
X141243298Y-95381643D01*
X141170950Y-95420315D01*
X141170948Y-95420316D01*
X141170947Y-95420317D01*
X141010989Y-95551589D01*
X140879717Y-95711547D01*
X140782169Y-95894043D01*
X140722099Y-96092067D01*
X140701817Y-96298000D01*
X140722099Y-96503932D01*
X140722100Y-96503934D01*
X140782168Y-96701954D01*
X140879715Y-96884450D01*
X140879717Y-96884452D01*
X141010989Y-97044410D01*
X141054108Y-97079796D01*
X141170950Y-97175685D01*
X141353446Y-97273232D01*
X141353451Y-97273233D01*
X141355351Y-97274021D01*
X141356196Y-97274701D01*
X141358819Y-97276104D01*
X141358553Y-97276601D01*
X141409755Y-97317862D01*
X141431821Y-97384156D01*
X141431900Y-97388583D01*
X141431900Y-99712011D01*
X141412215Y-99779050D01*
X141395581Y-99799692D01*
X135279803Y-105915470D01*
X135275814Y-105919125D01*
X135244805Y-105945145D01*
X135224562Y-105980206D01*
X135221656Y-105984766D01*
X135198446Y-106017913D01*
X135196206Y-106022717D01*
X135189229Y-106039561D01*
X135187410Y-106044559D01*
X135180383Y-106084411D01*
X135179212Y-106089691D01*
X135168735Y-106128791D01*
X135172264Y-106169113D01*
X135172500Y-106174520D01*
X135172500Y-113009080D01*
X135152815Y-113076119D01*
X135100011Y-113121874D01*
X135048500Y-113133080D01*
X134884545Y-113133080D01*
X134826068Y-113144711D01*
X134826067Y-113144712D01*
X134759745Y-113189027D01*
X134715430Y-113255349D01*
X134715429Y-113255350D01*
X134703798Y-113313827D01*
X134703798Y-117544172D01*
X133342201Y-117544172D01*
X133342202Y-117544168D01*
X133342202Y-113313832D01*
X133342202Y-113313829D01*
X133342201Y-113313827D01*
X133330570Y-113255350D01*
X133330569Y-113255349D01*
X133286254Y-113189027D01*
X133219932Y-113144712D01*
X133219931Y-113144711D01*
X133161454Y-113133080D01*
X133161450Y-113133080D01*
X132631100Y-113133080D01*
X132564061Y-113113395D01*
X132518306Y-113060591D01*
X132507100Y-113009080D01*
X132507099Y-96298000D01*
X133081817Y-96298000D01*
X133102099Y-96503932D01*
X133102100Y-96503934D01*
X133162168Y-96701954D01*
X133259715Y-96884450D01*
X133259717Y-96884452D01*
X133390989Y-97044410D01*
X133434108Y-97079796D01*
X133550950Y-97175685D01*
X133733446Y-97273232D01*
X133931466Y-97333300D01*
X133931465Y-97333300D01*
X133949929Y-97335118D01*
X134137400Y-97353583D01*
X134343334Y-97333300D01*
X134541354Y-97273232D01*
X134723850Y-97175685D01*
X134883810Y-97044410D01*
X135015085Y-96884450D01*
X135112632Y-96701954D01*
X135172700Y-96503934D01*
X135192983Y-96298000D01*
X135172700Y-96092066D01*
X135112632Y-95894046D01*
X135015085Y-95711550D01*
X134903143Y-95575147D01*
X134883810Y-95551589D01*
X134723852Y-95420317D01*
X134723853Y-95420317D01*
X134723850Y-95420315D01*
X134541354Y-95322768D01*
X134343334Y-95262700D01*
X134343332Y-95262699D01*
X134343334Y-95262699D01*
X134137400Y-95242417D01*
X133931467Y-95262699D01*
X133733443Y-95322769D01*
X133623298Y-95381643D01*
X133550950Y-95420315D01*
X133550948Y-95420316D01*
X133550947Y-95420317D01*
X133390989Y-95551589D01*
X133259717Y-95711547D01*
X133162169Y-95894043D01*
X133102099Y-96092067D01*
X133081817Y-96298000D01*
X132507099Y-96298000D01*
X132507099Y-93480388D01*
X132526784Y-93413349D01*
X132543418Y-93392707D01*
X133296107Y-92640019D01*
X133357430Y-92606534D01*
X133383788Y-92603700D01*
X133573424Y-92603700D01*
X133640463Y-92623385D01*
X133686218Y-92676189D01*
X133696162Y-92745347D01*
X133667137Y-92808903D01*
X133631879Y-92837057D01*
X133550950Y-92880315D01*
X133550948Y-92880316D01*
X133550947Y-92880317D01*
X133390989Y-93011589D01*
X133273694Y-93154516D01*
X133259715Y-93171550D01*
X133254581Y-93181155D01*
X133162169Y-93354043D01*
X133102099Y-93552067D01*
X133081817Y-93757999D01*
X133102099Y-93963932D01*
X133102100Y-93963934D01*
X133162168Y-94161954D01*
X133259715Y-94344450D01*
X133259717Y-94344452D01*
X133390989Y-94504410D01*
X133487609Y-94583702D01*
X133550950Y-94635685D01*
X133733446Y-94733232D01*
X133931466Y-94793300D01*
X133931465Y-94793300D01*
X133949929Y-94795118D01*
X134137400Y-94813583D01*
X134343334Y-94793300D01*
X134541354Y-94733232D01*
X134723850Y-94635685D01*
X134883810Y-94504410D01*
X135015085Y-94344450D01*
X135112632Y-94161954D01*
X135172700Y-93963934D01*
X135192983Y-93758000D01*
X135172700Y-93552066D01*
X135112632Y-93354046D01*
X135015085Y-93171550D01*
X134963102Y-93108209D01*
X134883810Y-93011589D01*
X134723852Y-92880317D01*
X134723853Y-92880317D01*
X134723850Y-92880315D01*
X134642921Y-92837057D01*
X134593078Y-92788095D01*
X134577618Y-92719957D01*
X134601450Y-92654278D01*
X134657008Y-92611909D01*
X134701376Y-92603700D01*
X136113424Y-92603700D01*
X136180463Y-92623385D01*
X136226218Y-92676189D01*
X136236162Y-92745347D01*
X136207137Y-92808903D01*
X136171879Y-92837057D01*
X136090950Y-92880315D01*
X136090948Y-92880316D01*
X136090947Y-92880317D01*
X135930989Y-93011589D01*
X135813694Y-93154516D01*
X135799715Y-93171550D01*
X135794581Y-93181155D01*
X135702169Y-93354043D01*
X135642099Y-93552067D01*
X135621817Y-93757999D01*
X135642099Y-93963932D01*
X135642100Y-93963934D01*
X135702168Y-94161954D01*
X135799715Y-94344450D01*
X135799717Y-94344452D01*
X135930989Y-94504410D01*
X136027609Y-94583702D01*
X136090950Y-94635685D01*
X136273446Y-94733232D01*
X136471466Y-94793300D01*
X136471465Y-94793300D01*
X136489929Y-94795118D01*
X136677400Y-94813583D01*
X136883334Y-94793300D01*
X137081354Y-94733232D01*
X137081369Y-94733223D01*
X137083243Y-94732448D01*
X137084318Y-94732332D01*
X137087184Y-94731463D01*
X137087348Y-94732005D01*
X137152711Y-94724969D01*
X137215195Y-94756234D01*
X137218394Y-94759321D01*
X137585581Y-95126507D01*
X137619066Y-95187830D01*
X137621900Y-95214188D01*
X137621900Y-95451981D01*
X137602215Y-95519020D01*
X137549411Y-95564775D01*
X137480253Y-95574719D01*
X137419236Y-95547835D01*
X137263853Y-95420317D01*
X137263851Y-95420316D01*
X137263850Y-95420315D01*
X137081354Y-95322768D01*
X136883334Y-95262700D01*
X136883332Y-95262699D01*
X136883334Y-95262699D01*
X136677400Y-95242417D01*
X136471467Y-95262699D01*
X136273443Y-95322769D01*
X136163298Y-95381643D01*
X136090950Y-95420315D01*
X136090948Y-95420316D01*
X136090947Y-95420317D01*
X135930989Y-95551589D01*
X135799717Y-95711547D01*
X135702169Y-95894043D01*
X135642099Y-96092067D01*
X135621817Y-96298000D01*
X135642099Y-96503932D01*
X135642100Y-96503934D01*
X135702168Y-96701954D01*
X135799715Y-96884450D01*
X135799717Y-96884452D01*
X135930989Y-97044410D01*
X135974108Y-97079796D01*
X136090950Y-97175685D01*
X136273446Y-97273232D01*
X136471466Y-97333300D01*
X136471465Y-97333300D01*
X136489929Y-97335118D01*
X136677400Y-97353583D01*
X136883334Y-97333300D01*
X137081354Y-97273232D01*
X137263850Y-97175685D01*
X137419235Y-97048164D01*
X137483546Y-97020852D01*
X137552413Y-97032643D01*
X137603973Y-97079796D01*
X137621900Y-97144018D01*
X137621900Y-101016489D01*
X137602215Y-101083528D01*
X137596276Y-101091975D01*
X137575264Y-101119357D01*
X137514756Y-101265437D01*
X137514755Y-101265439D01*
X137494118Y-101422198D01*
X137494118Y-101422201D01*
X137514755Y-101578960D01*
X137514756Y-101578962D01*
X137575264Y-101725041D01*
X137671518Y-101850482D01*
X137796959Y-101946736D01*
X137943038Y-102007244D01*
X138021418Y-102017563D01*
X138099799Y-102027882D01*
X138099800Y-102027882D01*
X138099801Y-102027882D01*
X138152053Y-102021002D01*
X138256562Y-102007244D01*
X138402641Y-101946736D01*
X138528082Y-101850482D01*
X138624336Y-101725041D01*
X138684844Y-101578962D01*
X138705482Y-101422200D01*
X138684844Y-101265438D01*
X138624336Y-101119359D01*
X138528082Y-100993918D01*
X138528080Y-100993917D01*
X138528080Y-100993916D01*
X138402641Y-100897664D01*
X138402634Y-100897660D01*
X138349446Y-100875628D01*
X138295043Y-100831787D01*
X138272979Y-100765492D01*
X138272900Y-100761068D01*
X138272900Y-97144018D01*
X138292585Y-97076979D01*
X138345389Y-97031224D01*
X138414547Y-97021280D01*
X138475564Y-97048164D01*
X138630950Y-97175685D01*
X138813446Y-97273232D01*
X138813451Y-97273233D01*
X138815351Y-97274021D01*
X138816196Y-97274701D01*
X138818819Y-97276104D01*
X138818553Y-97276601D01*
X138869755Y-97317862D01*
X138891821Y-97384156D01*
X138891900Y-97388583D01*
X138891900Y-99462810D01*
X138872215Y-99529849D01*
X138843387Y-99561185D01*
X138763720Y-99622316D01*
X138667463Y-99747760D01*
X138606956Y-99893837D01*
X138606955Y-99893839D01*
X138586318Y-100050598D01*
X138586318Y-100050601D01*
X138606955Y-100207360D01*
X138606956Y-100207362D01*
X138666198Y-100350386D01*
X138667464Y-100353441D01*
X138763718Y-100478882D01*
X138889159Y-100575136D01*
X139035238Y-100635644D01*
X139113618Y-100645963D01*
X139191999Y-100656282D01*
X139192000Y-100656282D01*
X139192001Y-100656282D01*
X139244253Y-100649402D01*
X139348762Y-100635644D01*
X139494841Y-100575136D01*
X139620282Y-100478882D01*
X139716536Y-100353441D01*
X139777044Y-100207362D01*
X139796907Y-100056484D01*
X139797682Y-100050601D01*
X139797682Y-100050598D01*
X139778937Y-99908214D01*
X139777044Y-99893838D01*
X139716536Y-99747759D01*
X139620282Y-99622318D01*
X139620279Y-99622316D01*
X139620278Y-99622314D01*
X139591413Y-99600165D01*
X139550211Y-99543737D01*
X139542900Y-99501790D01*
X139542900Y-97388583D01*
X139562585Y-97321544D01*
X139615389Y-97275789D01*
X139619449Y-97274021D01*
X139621345Y-97273234D01*
X139621354Y-97273232D01*
X139803850Y-97175685D01*
X139963810Y-97044410D01*
X140095085Y-96884450D01*
X140192632Y-96701954D01*
X140252700Y-96503934D01*
X140272983Y-96298000D01*
X140252700Y-96092066D01*
X140192632Y-95894046D01*
X140095085Y-95711550D01*
X139983143Y-95575147D01*
X139963810Y-95551589D01*
X139803852Y-95420317D01*
X139803853Y-95420317D01*
X139803850Y-95420315D01*
X139621354Y-95322768D01*
X139423334Y-95262700D01*
X139423332Y-95262699D01*
X139423334Y-95262699D01*
X139217400Y-95242417D01*
X139011467Y-95262699D01*
X138813443Y-95322769D01*
X138630946Y-95420317D01*
X138475564Y-95547835D01*
X138411254Y-95575147D01*
X138342387Y-95563356D01*
X138290827Y-95516203D01*
X138272900Y-95451981D01*
X138272900Y-95044912D01*
X138273136Y-95039506D01*
X138276663Y-94999191D01*
X138266185Y-94960090D01*
X138265018Y-94954830D01*
X138257988Y-94914955D01*
X138257987Y-94914953D01*
X138256160Y-94909933D01*
X138249220Y-94893176D01*
X138246954Y-94888319D01*
X138246954Y-94888316D01*
X138223737Y-94855159D01*
X138220835Y-94850605D01*
X138200594Y-94815545D01*
X138169582Y-94789522D01*
X138165610Y-94785883D01*
X137678721Y-94298994D01*
X137645236Y-94237671D01*
X137650220Y-94167979D01*
X137651848Y-94163843D01*
X137652623Y-94161969D01*
X137652632Y-94161954D01*
X137712700Y-93963934D01*
X137732983Y-93758000D01*
X137712700Y-93552066D01*
X137652632Y-93354046D01*
X137555085Y-93171550D01*
X137503102Y-93108209D01*
X137423810Y-93011589D01*
X137263852Y-92880317D01*
X137263853Y-92880317D01*
X137263850Y-92880315D01*
X137182921Y-92837057D01*
X137133078Y-92788095D01*
X137117618Y-92719957D01*
X137141450Y-92654278D01*
X137197008Y-92611909D01*
X137241376Y-92603700D01*
X138523212Y-92603700D01*
X138590251Y-92623385D01*
X138610893Y-92640019D01*
X138656249Y-92685375D01*
X138689734Y-92746698D01*
X138684750Y-92816390D01*
X138642878Y-92872323D01*
X138635898Y-92876767D01*
X138636010Y-92876934D01*
X138630950Y-92880314D01*
X138470989Y-93011589D01*
X138353694Y-93154516D01*
X138339715Y-93171550D01*
X138334581Y-93181155D01*
X138242169Y-93354043D01*
X138182099Y-93552067D01*
X138161817Y-93758000D01*
X138182099Y-93963932D01*
X138182100Y-93963934D01*
X138242168Y-94161954D01*
X138339715Y-94344450D01*
X138339717Y-94344452D01*
X138470989Y-94504410D01*
X138567609Y-94583702D01*
X138630950Y-94635685D01*
X138813446Y-94733232D01*
X139011466Y-94793300D01*
X139011465Y-94793300D01*
X139031747Y-94795297D01*
X139217400Y-94813583D01*
X139423334Y-94793300D01*
X139621354Y-94733232D01*
X139803850Y-94635685D01*
X139963810Y-94504410D01*
X140095085Y-94344450D01*
X140192632Y-94161954D01*
X140252700Y-93963934D01*
X140272983Y-93758000D01*
X140272983Y-93757999D01*
X140701817Y-93757999D01*
X140722099Y-93963932D01*
X140722100Y-93963934D01*
X140782168Y-94161954D01*
X140879715Y-94344450D01*
X140879717Y-94344452D01*
X141010989Y-94504410D01*
X141107609Y-94583702D01*
X141170950Y-94635685D01*
X141353446Y-94733232D01*
X141551466Y-94793300D01*
X141551465Y-94793300D01*
X141569929Y-94795118D01*
X141757400Y-94813583D01*
X141963334Y-94793300D01*
X142161354Y-94733232D01*
X142343850Y-94635685D01*
X142503810Y-94504410D01*
X142635085Y-94344450D01*
X142732632Y-94161954D01*
X142792700Y-93963934D01*
X142812983Y-93758000D01*
X142792700Y-93552066D01*
X142732632Y-93354046D01*
X142635085Y-93171550D01*
X142583102Y-93108209D01*
X142503810Y-93011589D01*
X142343852Y-92880317D01*
X142343853Y-92880317D01*
X142343850Y-92880315D01*
X142161354Y-92782768D01*
X141963334Y-92722700D01*
X141963332Y-92722699D01*
X141963334Y-92722699D01*
X141757400Y-92702417D01*
X141551467Y-92722699D01*
X141376092Y-92775898D01*
X141358774Y-92781152D01*
X141353443Y-92782769D01*
X141314474Y-92803599D01*
X141170950Y-92880315D01*
X141170948Y-92880316D01*
X141170947Y-92880317D01*
X141010989Y-93011589D01*
X140893694Y-93154516D01*
X140879715Y-93171550D01*
X140874581Y-93181155D01*
X140782169Y-93354043D01*
X140722099Y-93552067D01*
X140701817Y-93757999D01*
X140272983Y-93757999D01*
X140252700Y-93552066D01*
X140192632Y-93354046D01*
X140095085Y-93171550D01*
X140043102Y-93108209D01*
X139963810Y-93011589D01*
X139803852Y-92880317D01*
X139803853Y-92880317D01*
X139803850Y-92880315D01*
X139621354Y-92782768D01*
X139616023Y-92781150D01*
X139557586Y-92742854D01*
X139529903Y-92684018D01*
X139527988Y-92673155D01*
X139527987Y-92673153D01*
X139526165Y-92668147D01*
X139519215Y-92651368D01*
X139516954Y-92646519D01*
X139516953Y-92646518D01*
X139516953Y-92646516D01*
X139493733Y-92613354D01*
X139490835Y-92608804D01*
X139487245Y-92602587D01*
X139470594Y-92573745D01*
X139470591Y-92573742D01*
X139470590Y-92573741D01*
X139453589Y-92559476D01*
X139439582Y-92547722D01*
X139435610Y-92544083D01*
X138951519Y-92059993D01*
X138947874Y-92056014D01*
X138921856Y-92025007D01*
X138921855Y-92025006D01*
X138910458Y-92018426D01*
X138886792Y-92004761D01*
X138882231Y-92001855D01*
X138869087Y-91992652D01*
X138849084Y-91978646D01*
X138849081Y-91978645D01*
X138844261Y-91976397D01*
X138827455Y-91969435D01*
X138822443Y-91967611D01*
X138782590Y-91960583D01*
X138777310Y-91959412D01*
X138738208Y-91948935D01*
X138703292Y-91951990D01*
X138697881Y-91952464D01*
X138692478Y-91952700D01*
X133214522Y-91952700D01*
X133209118Y-91952464D01*
X133203707Y-91951990D01*
X133168792Y-91948935D01*
X133168791Y-91948935D01*
X133129691Y-91959412D01*
X133124411Y-91960583D01*
X133084559Y-91967610D01*
X133079561Y-91969429D01*
X133062717Y-91976406D01*
X133057913Y-91978646D01*
X133024766Y-92001856D01*
X133020206Y-92004762D01*
X132985148Y-92025004D01*
X132985140Y-92025010D01*
X132959123Y-92056015D01*
X132955469Y-92060004D01*
X131963403Y-93052070D01*
X131959414Y-93055725D01*
X131928405Y-93081745D01*
X131908162Y-93116806D01*
X131905256Y-93121366D01*
X131882046Y-93154513D01*
X131879806Y-93159317D01*
X131872829Y-93176161D01*
X131871010Y-93181159D01*
X131863983Y-93221011D01*
X131862812Y-93226291D01*
X131852335Y-93265391D01*
X131852335Y-93265394D01*
X131855863Y-93305715D01*
X131856099Y-93311120D01*
X131856099Y-112002602D01*
X131836414Y-112069641D01*
X131783610Y-112115396D01*
X131714452Y-112125340D01*
X131650896Y-112096315D01*
X131617538Y-112050055D01*
X131613936Y-112041360D01*
X131613936Y-112041359D01*
X131517682Y-111915918D01*
X131392241Y-111819664D01*
X131246162Y-111759156D01*
X131246160Y-111759155D01*
X131089401Y-111738518D01*
X131089399Y-111738518D01*
X130932639Y-111759155D01*
X130932637Y-111759156D01*
X130786560Y-111819663D01*
X130661118Y-111915918D01*
X130564863Y-112041360D01*
X130504356Y-112187437D01*
X130504355Y-112187439D01*
X130483718Y-112344198D01*
X130483718Y-112344201D01*
X130504355Y-112500960D01*
X130504356Y-112500962D01*
X130564864Y-112647041D01*
X130661118Y-112772482D01*
X130773986Y-112859088D01*
X130815189Y-112915516D01*
X130822500Y-112957464D01*
X130822500Y-117332934D01*
X130802815Y-117399973D01*
X130750011Y-117445728D01*
X130698500Y-117456934D01*
X130534545Y-117456934D01*
X130476068Y-117468565D01*
X130476067Y-117468566D01*
X130409745Y-117512881D01*
X130365430Y-117579203D01*
X130365429Y-117579204D01*
X130353798Y-117637681D01*
X130353798Y-120820318D01*
X129992620Y-120820318D01*
X129992620Y-107845219D01*
X129992648Y-107845076D01*
X129992644Y-107845076D01*
X129992659Y-107820462D01*
X129992661Y-107820460D01*
X129992582Y-107820268D01*
X129992504Y-107820078D01*
X129992502Y-107820076D01*
X129992219Y-107819960D01*
X129992120Y-107819919D01*
X129967566Y-107819919D01*
X129967360Y-107819960D01*
X124315260Y-107819960D01*
X124248221Y-107800275D01*
X124202466Y-107747471D01*
X124191260Y-107695960D01*
X124191260Y-73444140D01*
X124210945Y-73377101D01*
X124263749Y-73331346D01*
X124315260Y-73320140D01*
X154066200Y-73320140D01*
X154133239Y-73339825D01*
G37*
%TD.AperFunction*%
%TD*%
M02*
