M48
; DRILL file {KiCad 7.0.7} date Sat Mar  2 19:00:12 2024
; FORMAT={-:-/ absolute / metric / decimal}
; #@! TF.CreationDate,2024-03-02T19:00:12-05:00
; #@! TF.GenerationSoftware,Kicad,Pcbnew,7.0.7
; #@! TF.FileFunction,Plated,1,2,PTH
FMAT,2
METRIC
; #@! TA.AperFunction,Plated,PTH,ViaDrill
T1C0.400
; #@! TA.AperFunction,Plated,PTH,ComponentDrill
T2C1.000
%
G90
G05
T1
X125.832Y-98.679
X125.882Y-92.913
X125.933Y-74.905
X125.933Y-86.233
X125.984Y-79.527
X125.984Y-105.689
X131.089Y-112.344
X132.74Y-75.108
X134.036Y-109.372
X135.179Y-102.794
X138.1Y-101.422
X138.354Y-109.753
X139.192Y-100.051
X139.903Y-107.01
X140.995Y-75.006
X141.298Y-109.728
X142.723Y-107.112
X144.094Y-109.703
X147.091Y-112.293
X147.295Y-74.854
X152.425Y-74.6
X152.476Y-79.68
X152.476Y-86.055
X152.527Y-92.558
X152.629Y-99.568
X152.629Y-106.172
T2
X134.137Y-93.758
X134.137Y-96.298
X136.677Y-93.758
X136.677Y-96.298
X139.217Y-93.758
X139.217Y-96.298
X141.757Y-93.758
X141.757Y-96.298
X144.297Y-93.758
X144.297Y-96.298
T0
M30
