%TF.GenerationSoftware,KiCad,Pcbnew,7.0.7*%
%TF.CreationDate,2024-03-02T19:00:10-05:00*%
%TF.ProjectId,BBAMemCardPCB,4242414d-656d-4436-9172-645043422e6b,rev?*%
%TF.SameCoordinates,Original*%
%TF.FileFunction,Copper,L2,Bot*%
%TF.FilePolarity,Positive*%
%FSLAX46Y46*%
G04 Gerber Fmt 4.6, Leading zero omitted, Abs format (unit mm)*
G04 Created by KiCad (PCBNEW 7.0.7) date 2024-03-02 19:00:10*
%MOMM*%
%LPD*%
G01*
G04 APERTURE LIST*
%TA.AperFunction,ComponentPad*%
%ADD10R,1.700000X1.700000*%
%TD*%
%TA.AperFunction,ComponentPad*%
%ADD11O,1.700000X1.700000*%
%TD*%
%TA.AperFunction,ViaPad*%
%ADD12C,0.800000*%
%TD*%
%TA.AperFunction,Conductor*%
%ADD13C,0.250000*%
%TD*%
%TA.AperFunction,Conductor*%
%ADD14C,0.600000*%
%TD*%
G04 APERTURE END LIST*
D10*
%TO.P,J2,1,Pin_1*%
%TO.N,/GND*%
X144297400Y-93758000D03*
D11*
%TO.P,J2,2,Pin_2*%
%TO.N,/VCC*%
X144297400Y-96298000D03*
%TO.P,J2,3,Pin_3*%
%TO.N,/RST*%
X141757400Y-93758000D03*
%TO.P,J2,4,Pin_4*%
%TO.N,/CS*%
X141757400Y-96298000D03*
%TO.P,J2,5,Pin_5*%
%TO.N,/SCK*%
X139217400Y-93758000D03*
%TO.P,J2,6,Pin_6*%
%TO.N,/SI*%
X139217400Y-96298000D03*
%TO.P,J2,7,Pin_7*%
%TO.N,/SO*%
X136677400Y-93758000D03*
%TO.P,J2,8,Pin_8*%
%TO.N,/WOL*%
X136677400Y-96298000D03*
%TO.P,J2,9,Pin_9*%
%TO.N,/INT*%
X134137400Y-93758000D03*
%TO.P,J2,10,Pin_10*%
%TO.N,/CLK*%
X134137400Y-96298000D03*
%TD*%
D12*
%TO.N,/GND*%
X152527000Y-92557600D03*
X147294600Y-74853800D03*
X140995400Y-75006200D03*
X132740400Y-75107800D03*
X125831600Y-98679000D03*
X125882400Y-92913200D03*
X125933200Y-86233000D03*
X125984000Y-79527400D03*
X152425400Y-74599800D03*
X125933200Y-74904600D03*
X152476200Y-79679800D03*
X152476200Y-86055200D03*
X152628600Y-99568000D03*
X125984000Y-105689400D03*
X135178800Y-102793800D03*
X139903200Y-107010200D03*
X142722600Y-107111800D03*
X152628600Y-106172000D03*
%TO.N,Net-(J1-EXTIN)*%
X147091400Y-112293400D03*
X131089400Y-112344200D03*
%TO.N,/GND*%
X134035800Y-109372400D03*
%TO.N,/INT*%
X144094200Y-109702600D03*
%TO.N,/SO*%
X138353800Y-109753400D03*
X138099800Y-101422200D03*
%TO.N,/SI*%
X141298000Y-109728000D03*
X139192000Y-100050600D03*
%TD*%
D13*
%TO.N,/SO*%
X138353800Y-109753400D02*
X138353800Y-101676200D01*
X138353800Y-101676200D02*
X138099800Y-101422200D01*
%TO.N,/SI*%
X139192000Y-100076000D02*
X139192000Y-100050600D01*
X141298000Y-109728000D02*
X141298000Y-102182000D01*
X141298000Y-102182000D02*
X139192000Y-100076000D01*
%TO.N,/INT*%
X135382000Y-95002600D02*
X134137400Y-93758000D01*
X136347200Y-98577400D02*
X135382000Y-97612200D01*
X135382000Y-97612200D02*
X135382000Y-95002600D01*
X144094200Y-109702600D02*
X144094200Y-102031800D01*
X140639800Y-98577400D02*
X136347200Y-98577400D01*
X144094200Y-102031800D02*
X140639800Y-98577400D01*
D14*
%TO.N,/GND*%
X144297400Y-92938600D02*
X144297400Y-93758000D01*
X130606800Y-93294200D02*
X132410200Y-91490800D01*
X130606800Y-101904800D02*
X130606800Y-93294200D01*
X142849600Y-91490800D02*
X144297400Y-92938600D01*
X134035800Y-105333800D02*
X130606800Y-101904800D01*
X134035800Y-109372400D02*
X134035800Y-105333800D01*
X132410200Y-91490800D02*
X142849600Y-91490800D01*
D13*
%TO.N,Net-(J1-EXTIN)*%
X147066000Y-112318800D02*
X131114800Y-112318800D01*
X131114800Y-112318800D02*
X131089400Y-112344200D01*
X147091400Y-112293400D02*
X147066000Y-112318800D01*
%TD*%
%TA.AperFunction,Conductor*%
%TO.N,/GND*%
G36*
X154133239Y-73339825D02*
G01*
X154178994Y-73392629D01*
X154190200Y-73444140D01*
X154190200Y-107695960D01*
X154170515Y-107762999D01*
X154117711Y-107808754D01*
X154066200Y-107819960D01*
X148416640Y-107819960D01*
X148416434Y-107819919D01*
X148391880Y-107819919D01*
X148391781Y-107819960D01*
X148391497Y-107820076D01*
X148391495Y-107820078D01*
X148391339Y-107820459D01*
X148391356Y-107845076D01*
X148391351Y-107845076D01*
X148391380Y-107845219D01*
X148391380Y-122735300D01*
X148371695Y-122802339D01*
X148318891Y-122848094D01*
X148267380Y-122859300D01*
X130116620Y-122859300D01*
X130049581Y-122839615D01*
X130003826Y-122786811D01*
X129992620Y-122735300D01*
X129992620Y-112344201D01*
X130483718Y-112344201D01*
X130504355Y-112500960D01*
X130504356Y-112500962D01*
X130563728Y-112644300D01*
X130564864Y-112647041D01*
X130661118Y-112772482D01*
X130786559Y-112868736D01*
X130932638Y-112929244D01*
X131011018Y-112939562D01*
X131089399Y-112949882D01*
X131089400Y-112949882D01*
X131089401Y-112949882D01*
X131141653Y-112943002D01*
X131246162Y-112929244D01*
X131392241Y-112868736D01*
X131517682Y-112772482D01*
X131556663Y-112721681D01*
X131578815Y-112692813D01*
X131635243Y-112651611D01*
X131677190Y-112644300D01*
X146542591Y-112644300D01*
X146609630Y-112663985D01*
X146640964Y-112692810D01*
X146663118Y-112721682D01*
X146788559Y-112817936D01*
X146934638Y-112878444D01*
X147013018Y-112888762D01*
X147091399Y-112899082D01*
X147091400Y-112899082D01*
X147091401Y-112899082D01*
X147143654Y-112892202D01*
X147248162Y-112878444D01*
X147394241Y-112817936D01*
X147519682Y-112721682D01*
X147615936Y-112596241D01*
X147676444Y-112450162D01*
X147697082Y-112293400D01*
X147676444Y-112136638D01*
X147615936Y-111990559D01*
X147519682Y-111865118D01*
X147394241Y-111768864D01*
X147370801Y-111759155D01*
X147248162Y-111708356D01*
X147248160Y-111708355D01*
X147091401Y-111687718D01*
X147091399Y-111687718D01*
X146934639Y-111708355D01*
X146934637Y-111708356D01*
X146788560Y-111768863D01*
X146788558Y-111768864D01*
X146788559Y-111768864D01*
X146663118Y-111865118D01*
X146663117Y-111865119D01*
X146663116Y-111865120D01*
X146601985Y-111944787D01*
X146545557Y-111985989D01*
X146503610Y-111993300D01*
X131638209Y-111993300D01*
X131571170Y-111973615D01*
X131539835Y-111944789D01*
X131517682Y-111915918D01*
X131392241Y-111819664D01*
X131246162Y-111759156D01*
X131246160Y-111759155D01*
X131089401Y-111738518D01*
X131089399Y-111738518D01*
X130932639Y-111759155D01*
X130932637Y-111759156D01*
X130786560Y-111819663D01*
X130661118Y-111915918D01*
X130564863Y-112041360D01*
X130504356Y-112187437D01*
X130504355Y-112187439D01*
X130483718Y-112344198D01*
X130483718Y-112344201D01*
X129992620Y-112344201D01*
X129992620Y-107845219D01*
X129992648Y-107845076D01*
X129992644Y-107845076D01*
X129992659Y-107820462D01*
X129992661Y-107820460D01*
X129992582Y-107820268D01*
X129992504Y-107820078D01*
X129992502Y-107820076D01*
X129992219Y-107819960D01*
X129992120Y-107819919D01*
X129967566Y-107819919D01*
X129967360Y-107819960D01*
X124315260Y-107819960D01*
X124248221Y-107800275D01*
X124202466Y-107747471D01*
X124191260Y-107695960D01*
X124191260Y-101422201D01*
X137494118Y-101422201D01*
X137514755Y-101578960D01*
X137514756Y-101578962D01*
X137562038Y-101693112D01*
X137575264Y-101725041D01*
X137671518Y-101850482D01*
X137796959Y-101946736D01*
X137943038Y-102007244D01*
X137943039Y-102007244D01*
X137950547Y-102010354D01*
X137949310Y-102013339D01*
X137996045Y-102041818D01*
X138026581Y-102104661D01*
X138028300Y-102125238D01*
X138028300Y-109185099D01*
X138008615Y-109252138D01*
X137979788Y-109283474D01*
X137925520Y-109325115D01*
X137829263Y-109450560D01*
X137768756Y-109596637D01*
X137768755Y-109596639D01*
X137748118Y-109753398D01*
X137748118Y-109753401D01*
X137768755Y-109910160D01*
X137768756Y-109910162D01*
X137829264Y-110056241D01*
X137925518Y-110181682D01*
X138050959Y-110277936D01*
X138197038Y-110338444D01*
X138275418Y-110348762D01*
X138353799Y-110359082D01*
X138353800Y-110359082D01*
X138353801Y-110359082D01*
X138406053Y-110352202D01*
X138510562Y-110338444D01*
X138656641Y-110277936D01*
X138782082Y-110181682D01*
X138878336Y-110056241D01*
X138938844Y-109910162D01*
X138959482Y-109753400D01*
X138938844Y-109596638D01*
X138878336Y-109450559D01*
X138782082Y-109325118D01*
X138782080Y-109325116D01*
X138782079Y-109325115D01*
X138727812Y-109283474D01*
X138686610Y-109227046D01*
X138679300Y-109185099D01*
X138679300Y-101693112D01*
X138679536Y-101687706D01*
X138683063Y-101647392D01*
X138682117Y-101636590D01*
X138683385Y-101636478D01*
X138683386Y-101584399D01*
X138684839Y-101578972D01*
X138684844Y-101578962D01*
X138705482Y-101422200D01*
X138684844Y-101265438D01*
X138624336Y-101119359D01*
X138528082Y-100993918D01*
X138402641Y-100897664D01*
X138256562Y-100837156D01*
X138256560Y-100837155D01*
X138099801Y-100816518D01*
X138099799Y-100816518D01*
X137943039Y-100837155D01*
X137943037Y-100837156D01*
X137796960Y-100897663D01*
X137671518Y-100993918D01*
X137575263Y-101119360D01*
X137514756Y-101265437D01*
X137514755Y-101265439D01*
X137494118Y-101422198D01*
X137494118Y-101422201D01*
X124191260Y-101422201D01*
X124191260Y-100050601D01*
X138586318Y-100050601D01*
X138606955Y-100207360D01*
X138606956Y-100207362D01*
X138667464Y-100353441D01*
X138763718Y-100478882D01*
X138889159Y-100575136D01*
X139035238Y-100635644D01*
X139085993Y-100642326D01*
X139191999Y-100656282D01*
X139191999Y-100656281D01*
X139192000Y-100656282D01*
X139237373Y-100650308D01*
X139306408Y-100661073D01*
X139341240Y-100685566D01*
X140936181Y-102280507D01*
X140969666Y-102341830D01*
X140972500Y-102368188D01*
X140972500Y-109159699D01*
X140952815Y-109226738D01*
X140923988Y-109258074D01*
X140869720Y-109299715D01*
X140773463Y-109425160D01*
X140712956Y-109571237D01*
X140712955Y-109571239D01*
X140692318Y-109727998D01*
X140692318Y-109728001D01*
X140712955Y-109884760D01*
X140712956Y-109884762D01*
X140773464Y-110030841D01*
X140869718Y-110156282D01*
X140995159Y-110252536D01*
X141141238Y-110313044D01*
X141219618Y-110323362D01*
X141297999Y-110333682D01*
X141298000Y-110333682D01*
X141298001Y-110333682D01*
X141350254Y-110326802D01*
X141454762Y-110313044D01*
X141600841Y-110252536D01*
X141726282Y-110156282D01*
X141822536Y-110030841D01*
X141883044Y-109884762D01*
X141903682Y-109728000D01*
X141883044Y-109571238D01*
X141822536Y-109425159D01*
X141726282Y-109299718D01*
X141726280Y-109299716D01*
X141726279Y-109299715D01*
X141672012Y-109258074D01*
X141630810Y-109201646D01*
X141623500Y-109159699D01*
X141623500Y-102198920D01*
X141623736Y-102193513D01*
X141627264Y-102153193D01*
X141619773Y-102125238D01*
X141616782Y-102114076D01*
X141615616Y-102108818D01*
X141608588Y-102068955D01*
X141608586Y-102068952D01*
X141608586Y-102068950D01*
X141606760Y-102063933D01*
X141599820Y-102047176D01*
X141597554Y-102042319D01*
X141597554Y-102042316D01*
X141574339Y-102009162D01*
X141571433Y-102004599D01*
X141551196Y-101969548D01*
X141551195Y-101969547D01*
X141551194Y-101969545D01*
X141520177Y-101943518D01*
X141516193Y-101939867D01*
X139821056Y-100244730D01*
X139787571Y-100183407D01*
X139785798Y-100140863D01*
X139797682Y-100050600D01*
X139797682Y-100050598D01*
X139777044Y-99893839D01*
X139777044Y-99893838D01*
X139716536Y-99747759D01*
X139620282Y-99622318D01*
X139494841Y-99526064D01*
X139348762Y-99465556D01*
X139348760Y-99465555D01*
X139192001Y-99444918D01*
X139191999Y-99444918D01*
X139035239Y-99465555D01*
X139035237Y-99465556D01*
X138889160Y-99526063D01*
X138763718Y-99622318D01*
X138667463Y-99747760D01*
X138606956Y-99893837D01*
X138606955Y-99893839D01*
X138586318Y-100050598D01*
X138586318Y-100050601D01*
X124191260Y-100050601D01*
X124191260Y-96298000D01*
X133081817Y-96298000D01*
X133102099Y-96503932D01*
X133102100Y-96503934D01*
X133162168Y-96701954D01*
X133259715Y-96884450D01*
X133259717Y-96884452D01*
X133390989Y-97044410D01*
X133420965Y-97069010D01*
X133550950Y-97175685D01*
X133733446Y-97273232D01*
X133931466Y-97333300D01*
X133931465Y-97333300D01*
X133949929Y-97335118D01*
X134137400Y-97353583D01*
X134343334Y-97333300D01*
X134541354Y-97273232D01*
X134723850Y-97175685D01*
X134853834Y-97069010D01*
X134918145Y-97041697D01*
X134987013Y-97053488D01*
X135038573Y-97100641D01*
X135056500Y-97164863D01*
X135056500Y-97595278D01*
X135056264Y-97600685D01*
X135052735Y-97641008D01*
X135063212Y-97680110D01*
X135064383Y-97685390D01*
X135071411Y-97725243D01*
X135073235Y-97730255D01*
X135080197Y-97747061D01*
X135082445Y-97751881D01*
X135082446Y-97751884D01*
X135096452Y-97771887D01*
X135105655Y-97785031D01*
X135108561Y-97789592D01*
X135128806Y-97824655D01*
X135159815Y-97850675D01*
X135163805Y-97854331D01*
X136105063Y-98795589D01*
X136108718Y-98799578D01*
X136134741Y-98830590D01*
X136134743Y-98830591D01*
X136134745Y-98830594D01*
X136134747Y-98830595D01*
X136134748Y-98830596D01*
X136169799Y-98850833D01*
X136174362Y-98853739D01*
X136207516Y-98876954D01*
X136207519Y-98876954D01*
X136212376Y-98879220D01*
X136229133Y-98886160D01*
X136234150Y-98887986D01*
X136234152Y-98887986D01*
X136234155Y-98887988D01*
X136274018Y-98895016D01*
X136279276Y-98896182D01*
X136318393Y-98906664D01*
X136358718Y-98903135D01*
X136364122Y-98902900D01*
X140453612Y-98902900D01*
X140520651Y-98922585D01*
X140541293Y-98939219D01*
X143732381Y-102130307D01*
X143765866Y-102191630D01*
X143768700Y-102217988D01*
X143768700Y-109134299D01*
X143749015Y-109201338D01*
X143720188Y-109232674D01*
X143665920Y-109274315D01*
X143569663Y-109399760D01*
X143509156Y-109545837D01*
X143509155Y-109545839D01*
X143488518Y-109702598D01*
X143488518Y-109702601D01*
X143509155Y-109859360D01*
X143509156Y-109859362D01*
X143569664Y-110005441D01*
X143665918Y-110130882D01*
X143791359Y-110227136D01*
X143937438Y-110287644D01*
X144015819Y-110297962D01*
X144094199Y-110308282D01*
X144094200Y-110308282D01*
X144094201Y-110308282D01*
X144146453Y-110301402D01*
X144250962Y-110287644D01*
X144397041Y-110227136D01*
X144522482Y-110130882D01*
X144618736Y-110005441D01*
X144679244Y-109859362D01*
X144699882Y-109702600D01*
X144679244Y-109545838D01*
X144618736Y-109399759D01*
X144522482Y-109274318D01*
X144522480Y-109274316D01*
X144522479Y-109274315D01*
X144468212Y-109232674D01*
X144427010Y-109176246D01*
X144419700Y-109134299D01*
X144419700Y-102048709D01*
X144419936Y-102043302D01*
X144420023Y-102042316D01*
X144423463Y-102002993D01*
X144423462Y-102002992D01*
X144423463Y-102002991D01*
X144412985Y-101963890D01*
X144411818Y-101958630D01*
X144404788Y-101918755D01*
X144404787Y-101918753D01*
X144402960Y-101913733D01*
X144396020Y-101896976D01*
X144393754Y-101892119D01*
X144393754Y-101892116D01*
X144370537Y-101858959D01*
X144367635Y-101854405D01*
X144347394Y-101819345D01*
X144316382Y-101793322D01*
X144312410Y-101789683D01*
X140881919Y-98359193D01*
X140878274Y-98355214D01*
X140852256Y-98324207D01*
X140852255Y-98324206D01*
X140840858Y-98317626D01*
X140817192Y-98303961D01*
X140812631Y-98301055D01*
X140799487Y-98291852D01*
X140779484Y-98277846D01*
X140779481Y-98277845D01*
X140774661Y-98275597D01*
X140757855Y-98268635D01*
X140752843Y-98266811D01*
X140712990Y-98259783D01*
X140707710Y-98258612D01*
X140668608Y-98248135D01*
X140633692Y-98251190D01*
X140628281Y-98251664D01*
X140622878Y-98251900D01*
X136533388Y-98251900D01*
X136466349Y-98232215D01*
X136445707Y-98215581D01*
X135743819Y-97513693D01*
X135710334Y-97452370D01*
X135707500Y-97426012D01*
X135707500Y-97118643D01*
X135727185Y-97051604D01*
X135779989Y-97005849D01*
X135849147Y-96995905D01*
X135912703Y-97024930D01*
X135927350Y-97039975D01*
X135930990Y-97044410D01*
X135930991Y-97044411D01*
X135930993Y-97044413D01*
X135960965Y-97069010D01*
X136090950Y-97175685D01*
X136273446Y-97273232D01*
X136471466Y-97333300D01*
X136471465Y-97333300D01*
X136489929Y-97335118D01*
X136677400Y-97353583D01*
X136883334Y-97333300D01*
X137081354Y-97273232D01*
X137263850Y-97175685D01*
X137423810Y-97044410D01*
X137555085Y-96884450D01*
X137652632Y-96701954D01*
X137712700Y-96503934D01*
X137732983Y-96298000D01*
X137732983Y-96297999D01*
X138161817Y-96297999D01*
X138182099Y-96503932D01*
X138182100Y-96503934D01*
X138242168Y-96701954D01*
X138339715Y-96884450D01*
X138339717Y-96884452D01*
X138470989Y-97044410D01*
X138500965Y-97069010D01*
X138630950Y-97175685D01*
X138813446Y-97273232D01*
X139011466Y-97333300D01*
X139011465Y-97333300D01*
X139029929Y-97335118D01*
X139217400Y-97353583D01*
X139423334Y-97333300D01*
X139621354Y-97273232D01*
X139803850Y-97175685D01*
X139963810Y-97044410D01*
X140095085Y-96884450D01*
X140192632Y-96701954D01*
X140252700Y-96503934D01*
X140272983Y-96298000D01*
X140701817Y-96298000D01*
X140722099Y-96503932D01*
X140722100Y-96503934D01*
X140782168Y-96701954D01*
X140879715Y-96884450D01*
X140879717Y-96884452D01*
X141010989Y-97044410D01*
X141040965Y-97069010D01*
X141170950Y-97175685D01*
X141353446Y-97273232D01*
X141551466Y-97333300D01*
X141551465Y-97333300D01*
X141569929Y-97335118D01*
X141757400Y-97353583D01*
X141963334Y-97333300D01*
X142161354Y-97273232D01*
X142343850Y-97175685D01*
X142503810Y-97044410D01*
X142635085Y-96884450D01*
X142732632Y-96701954D01*
X142792700Y-96503934D01*
X142812983Y-96298000D01*
X143241817Y-96298000D01*
X143262099Y-96503932D01*
X143262100Y-96503934D01*
X143322168Y-96701954D01*
X143419715Y-96884450D01*
X143419717Y-96884452D01*
X143550989Y-97044410D01*
X143580965Y-97069010D01*
X143710950Y-97175685D01*
X143893446Y-97273232D01*
X144091466Y-97333300D01*
X144091465Y-97333300D01*
X144111747Y-97335297D01*
X144297400Y-97353583D01*
X144503334Y-97333300D01*
X144701354Y-97273232D01*
X144883850Y-97175685D01*
X145043810Y-97044410D01*
X145175085Y-96884450D01*
X145272632Y-96701954D01*
X145332700Y-96503934D01*
X145352983Y-96298000D01*
X145332700Y-96092066D01*
X145272632Y-95894046D01*
X145175085Y-95711550D01*
X145123102Y-95648209D01*
X145043810Y-95551589D01*
X144926077Y-95454969D01*
X144883850Y-95420315D01*
X144701354Y-95322768D01*
X144503334Y-95262700D01*
X144503332Y-95262699D01*
X144503334Y-95262699D01*
X144315863Y-95244235D01*
X144297400Y-95242417D01*
X144297399Y-95242417D01*
X144091467Y-95262699D01*
X143893443Y-95322769D01*
X143783298Y-95381643D01*
X143710950Y-95420315D01*
X143710948Y-95420316D01*
X143710947Y-95420317D01*
X143550989Y-95551589D01*
X143419717Y-95711547D01*
X143322169Y-95894043D01*
X143262099Y-96092067D01*
X143241817Y-96298000D01*
X142812983Y-96298000D01*
X142792700Y-96092066D01*
X142732632Y-95894046D01*
X142635085Y-95711550D01*
X142583102Y-95648209D01*
X142503810Y-95551589D01*
X142386077Y-95454969D01*
X142343850Y-95420315D01*
X142161354Y-95322768D01*
X141963334Y-95262700D01*
X141963332Y-95262699D01*
X141963334Y-95262699D01*
X141775863Y-95244235D01*
X141757400Y-95242417D01*
X141757399Y-95242417D01*
X141551467Y-95262699D01*
X141353443Y-95322769D01*
X141243298Y-95381643D01*
X141170950Y-95420315D01*
X141170948Y-95420316D01*
X141170947Y-95420317D01*
X141010989Y-95551589D01*
X140879717Y-95711547D01*
X140782169Y-95894043D01*
X140722099Y-96092067D01*
X140701817Y-96298000D01*
X140272983Y-96298000D01*
X140252700Y-96092066D01*
X140192632Y-95894046D01*
X140095085Y-95711550D01*
X140043102Y-95648209D01*
X139963810Y-95551589D01*
X139846077Y-95454969D01*
X139803850Y-95420315D01*
X139621354Y-95322768D01*
X139423334Y-95262700D01*
X139423332Y-95262699D01*
X139423334Y-95262699D01*
X139217400Y-95242417D01*
X139011467Y-95262699D01*
X138813443Y-95322769D01*
X138703298Y-95381643D01*
X138630950Y-95420315D01*
X138630948Y-95420316D01*
X138630947Y-95420317D01*
X138470989Y-95551589D01*
X138339717Y-95711547D01*
X138242169Y-95894043D01*
X138182099Y-96092067D01*
X138161817Y-96297999D01*
X137732983Y-96297999D01*
X137712700Y-96092066D01*
X137652632Y-95894046D01*
X137555085Y-95711550D01*
X137503102Y-95648209D01*
X137423810Y-95551589D01*
X137306077Y-95454969D01*
X137263850Y-95420315D01*
X137081354Y-95322768D01*
X136883334Y-95262700D01*
X136883332Y-95262699D01*
X136883334Y-95262699D01*
X136677400Y-95242417D01*
X136471467Y-95262699D01*
X136273443Y-95322769D01*
X136163298Y-95381643D01*
X136090950Y-95420315D01*
X136090948Y-95420316D01*
X136090947Y-95420317D01*
X135930989Y-95551590D01*
X135927353Y-95556021D01*
X135869608Y-95595355D01*
X135799763Y-95597226D01*
X135739995Y-95561039D01*
X135709279Y-95498283D01*
X135707500Y-95477356D01*
X135707500Y-95019512D01*
X135707736Y-95014106D01*
X135711263Y-94973791D01*
X135700785Y-94934690D01*
X135699618Y-94929430D01*
X135692588Y-94889555D01*
X135692587Y-94889553D01*
X135690760Y-94884533D01*
X135683820Y-94867776D01*
X135681554Y-94862919D01*
X135681554Y-94862916D01*
X135658337Y-94829759D01*
X135655435Y-94825205D01*
X135635194Y-94790145D01*
X135604182Y-94764122D01*
X135600210Y-94760483D01*
X135138721Y-94298994D01*
X135105236Y-94237671D01*
X135110220Y-94167979D01*
X135111848Y-94163843D01*
X135112623Y-94161969D01*
X135112632Y-94161954D01*
X135172700Y-93963934D01*
X135192983Y-93758000D01*
X135192983Y-93757999D01*
X135621817Y-93757999D01*
X135642099Y-93963932D01*
X135642100Y-93963934D01*
X135702168Y-94161954D01*
X135799715Y-94344450D01*
X135799717Y-94344452D01*
X135930989Y-94504410D01*
X136027609Y-94583702D01*
X136090950Y-94635685D01*
X136273446Y-94733232D01*
X136471466Y-94793300D01*
X136471465Y-94793300D01*
X136489929Y-94795118D01*
X136677400Y-94813583D01*
X136883334Y-94793300D01*
X137081354Y-94733232D01*
X137263850Y-94635685D01*
X137423810Y-94504410D01*
X137555085Y-94344450D01*
X137652632Y-94161954D01*
X137712700Y-93963934D01*
X137732983Y-93758000D01*
X138161817Y-93758000D01*
X138182099Y-93963932D01*
X138182100Y-93963934D01*
X138242168Y-94161954D01*
X138339715Y-94344450D01*
X138339717Y-94344452D01*
X138470989Y-94504410D01*
X138567609Y-94583702D01*
X138630950Y-94635685D01*
X138813446Y-94733232D01*
X139011466Y-94793300D01*
X139011465Y-94793300D01*
X139031747Y-94795297D01*
X139217400Y-94813583D01*
X139423334Y-94793300D01*
X139621354Y-94733232D01*
X139803850Y-94635685D01*
X139963810Y-94504410D01*
X140095085Y-94344450D01*
X140192632Y-94161954D01*
X140252700Y-93963934D01*
X140272983Y-93758000D01*
X140272983Y-93757999D01*
X140701817Y-93757999D01*
X140722099Y-93963932D01*
X140722100Y-93963934D01*
X140782168Y-94161954D01*
X140879715Y-94344450D01*
X140879717Y-94344452D01*
X141010989Y-94504410D01*
X141107609Y-94583702D01*
X141170950Y-94635685D01*
X141353446Y-94733232D01*
X141551466Y-94793300D01*
X141551465Y-94793300D01*
X141569929Y-94795118D01*
X141757400Y-94813583D01*
X141963334Y-94793300D01*
X142161354Y-94733232D01*
X142343850Y-94635685D01*
X142503810Y-94504410D01*
X142635085Y-94344450D01*
X142732632Y-94161954D01*
X142792700Y-93963934D01*
X142812983Y-93758000D01*
X142792700Y-93552066D01*
X142732632Y-93354046D01*
X142635085Y-93171550D01*
X142583102Y-93108209D01*
X142503810Y-93011589D01*
X142343852Y-92880317D01*
X142343853Y-92880317D01*
X142343850Y-92880315D01*
X142161354Y-92782768D01*
X141963334Y-92722700D01*
X141963332Y-92722699D01*
X141963334Y-92722699D01*
X141757400Y-92702417D01*
X141551467Y-92722699D01*
X141353443Y-92782769D01*
X141243298Y-92841643D01*
X141170950Y-92880315D01*
X141170948Y-92880316D01*
X141170947Y-92880317D01*
X141010989Y-93011589D01*
X140879717Y-93171547D01*
X140782169Y-93354043D01*
X140722099Y-93552067D01*
X140701817Y-93757999D01*
X140272983Y-93757999D01*
X140252700Y-93552066D01*
X140192632Y-93354046D01*
X140095085Y-93171550D01*
X140043102Y-93108209D01*
X139963810Y-93011589D01*
X139803852Y-92880317D01*
X139803853Y-92880317D01*
X139803850Y-92880315D01*
X139621354Y-92782768D01*
X139423334Y-92722700D01*
X139423332Y-92722699D01*
X139423334Y-92722699D01*
X139217400Y-92702417D01*
X139011467Y-92722699D01*
X138813443Y-92782769D01*
X138703298Y-92841643D01*
X138630950Y-92880315D01*
X138630948Y-92880316D01*
X138630947Y-92880317D01*
X138470989Y-93011589D01*
X138339717Y-93171547D01*
X138242169Y-93354043D01*
X138182099Y-93552067D01*
X138161817Y-93758000D01*
X137732983Y-93758000D01*
X137712700Y-93552066D01*
X137652632Y-93354046D01*
X137555085Y-93171550D01*
X137503102Y-93108209D01*
X137423810Y-93011589D01*
X137263852Y-92880317D01*
X137263853Y-92880317D01*
X137263850Y-92880315D01*
X137081354Y-92782768D01*
X136883334Y-92722700D01*
X136883332Y-92722699D01*
X136883334Y-92722699D01*
X136677400Y-92702417D01*
X136471467Y-92722699D01*
X136273443Y-92782769D01*
X136163298Y-92841643D01*
X136090950Y-92880315D01*
X136090948Y-92880316D01*
X136090947Y-92880317D01*
X135930989Y-93011589D01*
X135799717Y-93171547D01*
X135702169Y-93354043D01*
X135642099Y-93552067D01*
X135621817Y-93757999D01*
X135192983Y-93757999D01*
X135172700Y-93552066D01*
X135112632Y-93354046D01*
X135015085Y-93171550D01*
X134963102Y-93108209D01*
X134883810Y-93011589D01*
X134723852Y-92880317D01*
X134723853Y-92880317D01*
X134723850Y-92880315D01*
X134541354Y-92782768D01*
X134343334Y-92722700D01*
X134343332Y-92722699D01*
X134343334Y-92722699D01*
X134155863Y-92704235D01*
X134137400Y-92702417D01*
X134137399Y-92702417D01*
X133931467Y-92722699D01*
X133733443Y-92782769D01*
X133623298Y-92841643D01*
X133550950Y-92880315D01*
X133550948Y-92880316D01*
X133550947Y-92880317D01*
X133390989Y-93011589D01*
X133259717Y-93171547D01*
X133162169Y-93354043D01*
X133102099Y-93552067D01*
X133081817Y-93757999D01*
X133102099Y-93963932D01*
X133102100Y-93963934D01*
X133162168Y-94161954D01*
X133259715Y-94344450D01*
X133259717Y-94344452D01*
X133390989Y-94504410D01*
X133487609Y-94583702D01*
X133550950Y-94635685D01*
X133733446Y-94733232D01*
X133931466Y-94793300D01*
X133931465Y-94793300D01*
X133949929Y-94795118D01*
X134137400Y-94813583D01*
X134343334Y-94793300D01*
X134541354Y-94733232D01*
X134541369Y-94733223D01*
X134543243Y-94732448D01*
X134544318Y-94732332D01*
X134547184Y-94731463D01*
X134547348Y-94732005D01*
X134612711Y-94724969D01*
X134675195Y-94756234D01*
X134678394Y-94759321D01*
X135020181Y-95101107D01*
X135053666Y-95162430D01*
X135056500Y-95188788D01*
X135056500Y-95431136D01*
X135036815Y-95498175D01*
X134984011Y-95543930D01*
X134914853Y-95553874D01*
X134853836Y-95526990D01*
X134723853Y-95420317D01*
X134723851Y-95420316D01*
X134723850Y-95420315D01*
X134541354Y-95322768D01*
X134343334Y-95262700D01*
X134343332Y-95262699D01*
X134343334Y-95262699D01*
X134137400Y-95242417D01*
X133931467Y-95262699D01*
X133733443Y-95322769D01*
X133623298Y-95381643D01*
X133550950Y-95420315D01*
X133550948Y-95420316D01*
X133550947Y-95420317D01*
X133390989Y-95551589D01*
X133259717Y-95711547D01*
X133162169Y-95894043D01*
X133102099Y-96092067D01*
X133081817Y-96298000D01*
X124191260Y-96298000D01*
X124191260Y-73444140D01*
X124210945Y-73377101D01*
X124263749Y-73331346D01*
X124315260Y-73320140D01*
X154066200Y-73320140D01*
X154133239Y-73339825D01*
G37*
%TD.AperFunction*%
%TD*%
M02*
